ply
format ascii 1.0
element vertex 1325
property float x
property float y
property float z
property uchar red
property uchar green
property uchar blue
end_header
0.30638 0.29345 3.52541 0 255 0
0.312209 0.290039 3.52219 0 255 0
0.317948 0.28699 3.5246 0 255 0
0.324451 0.279616 3.52187 0 255 0
0.32045 0.279837 3.51581 0 255 0
0.30959 0.283238 3.50419 0 255 0
0.303166 0.284079 3.49399 0 255 0
0.298974 0.279383 3.47452 0 255 0
0.292967 0.280844 3.46738 0 255 0
0.0270121 0.564964 3.53537 0 255 0
-5.0362 0.24751 -5.4455 0 255 0
0.34201 0.291216 3.49294 0 255 0
0.318329 0.301136 3.51169 0 255 0
0.214316 0.322195 3.82976 172 49 48
0.223575 0.362223 3.90144 212 84 84
0.231572 0.376881 3.89025 214 74 44
0.231484 0.379291 3.91059 220 56 62
0.245388 0.371388 3.88494 192 136 142
0.245584 0.372912 3.89876 132 72 83
0.25292 0.365668 3.8798 146 96 118
0.229407 0.38542 3.90293 166 114 75
0.231379 0.383682 3.88892 168 142 81
0.228984 0.385901 3.88788 62 32 0
0.233661 0.380401 3.86326 138 100 50
0.231893 0.387131 3.90424 94 80 52
0.2311 0.387531 3.90045 62 52 29
0.233438 0.404725 3.9497 226 220 216
0.25603 0.392954 3.93788 114 127 140
0.207263 0.471206 4.01387 177 127 106
0.2161 0.465042 3.99602 201 99 104
0.230528 0.429 3.87504 152 96 89
0.20799 0.473462 4.00203 194 158 129
0.210014 0.480004 4.03245 239 155 154
0.211121 0.47576 3.98122 190 106 70
0.211092 0.477667 3.9823 158 88 62
0.279423 0.399365 3.86763 158 148 66
0.213689 0.481408 3.97742 166 114 78
0.231265 0.482629 4.02724 252 227 242
0.223413 0.463242 3.93152 104 48 27
0.277466 0.408519 3.8743 184 157 33
0.25917 0.431536 3.90514 86 63 12
0.234173 0.479113 4.00625 129 108 53
0.298383 0.39886 3.84543 224 196 131
0.28346 0.428176 3.88903 112 56 10
0.300418 0.415624 3.86021 252 138 54
0.305194 0.405957 3.84114 145 58 2
0.292086 0.435757 3.87969 139 105 3
0.290736 0.443852 3.89752 110 68 3
0.309673 0.414798 3.84491 80 54 2
0.310656 0.412573 3.83859 116 94 14
0.310381 0.412972 3.83827 208 203 162
0.279779 0.444673 3.8563 158 122 0
0.310936 0.414702 3.83841 232 217 122
0.279709 0.447017 3.85795 221 192 49
0.311555 0.417238 3.84126 182 144 28
0.313098 0.414638 3.83155 236 222 180
0.314981 0.418133 3.83343 122 90 7
0.32119 0.414616 3.81204 226 193 84
0.321547 0.416057 3.8147 74 27 0
0.314606 0.43293 3.82811 147 113 47
0.294161 0.450394 3.82892 160 120 41
0.310795 0.4557 3.86833 133 126 103
0.298408 0.456584 3.84597 71 36 3
0.308907 0.444612 3.83952 108 68 2
0.309371 0.44729 3.84598 192 154 47
0.244789 0.36774 3.88225 218 84 119
0.235939 0.386377 3.92535 188 187 198
0.235792 0.383884 3.8848 31 18 8
0.232725 0.391461 3.91841 121 102 56
0.249407 0.396311 3.87921 170 141 124
0.221651 0.437719 3.93901 166 140 138
0.208003 0.471176 4.01518 180 114 103
0.210179 0.477764 4.02884 247 197 194
0.21393 0.456522 3.94456 176 123 116
0.282787 0.38309 3.8413 194 170 4
0.216513 0.467062 3.95591 136 45 26
0.278089 0.404509 3.88318 160 152 90
0.223082 0.48359 4.03201 185 126 137
0.221659 0.486237 4.03667 179 123 126
0.245841 0.452379 3.97272 213 203 198
0.278886 0.404015 3.87856 161 154 102
0.277268 0.408301 3.87354 184 154 44
0.237252 0.471211 3.99638 153 62 72
0.221005 0.486799 4.00742 192 54 48
0.222215 0.493683 4.03614 186 113 122
0.234881 0.476376 4.00592 234 210 197
0.260793 0.426875 3.89313 94 72 20
0.223147 0.473827 3.96073 118 58 33
0.244959 0.439054 3.88325 184 164 153
0.276439 0.435804 3.87125 86 52 50
0.305142 0.406948 3.84321 145 58 2
0.280598 0.445916 3.87888 94 54 9
0.311127 0.411337 3.83247 144 139 98
0.310805 0.414421 3.83838 214 196 78
0.280396 0.443512 3.85014 218 194 58
0.312737 0.415699 3.83479 206 192 126
0.313066 0.416795 3.83502 174 142 44
0.316151 0.417673 3.83155 136 106 0
0.321286 0.415174 3.81235 128 83 27
0.320649 0.420821 3.82208 220 188 64
0.318322 0.428895 3.83111 196 170 42
0.291817 0.470781 3.8682 70 32 0
0.310689 0.45347 3.86358 146 137 108
0.299395 0.464848 3.86698 178 132 42
0.208506 0.32488 3.85622 190 60 45
0.205118 0.330259 3.87235 164 65 56
0.220015 0.362043 3.8934 209 126 57
0.242157 0.369883 3.88533 214 96 130
0.24462 0.367732 3.88147 224 116 154
0.225444 0.383616 3.8885 160 55 45
0.234811 0.382474 3.88552 32 24 12
0.240797 0.398053 3.93127 198 200 184
0.23851 0.392907 3.86314 170 168 152
0.240431 0.415671 3.88698 162 76 70
0.211969 0.455722 3.96496 216 166 143
0.245932 0.417269 3.87446 172 95 111
0.222216 0.472554 4.03034 197 122 142
0.227956 0.487619 4.03348 227 242 244
0.276534 0.411092 3.88122 186 157 45
0.25893 0.432416 3.90808 98 76 26
0.241951 0.460308 3.95648 128 108 52
0.270217 0.42352 3.89685 176 143 34
0.299117 0.394855 3.83526 180 142 84
0.29804 0.401337 3.8524 218 196 108
0.290383 0.442421 3.90416 166 110 0
0.280062 0.446039 3.85309 141 108 26
0.281277 0.448217 3.858 158 110 0
0.3145 0.417193 3.83363 192 168 109
0.314964 0.417212 3.83111 132 99 4
0.299205 0.444182 3.82192 71 36 3
0.301001 0.452321 3.84107 174 126 41
0.308812 0.448729 3.84723 96 54 0
0.309231 0.455654 3.86267 200 162 49
0.244705 0.367486 3.8801 216 106 145
0.239878 0.376059 3.89972 140 18 35
0.228081 0.387309 3.88818 132 92 44
0.250772 0.381006 3.89608 203 210 200
0.244096 0.38501 3.83696 166 162 140
0.222802 0.461834 4.00413 176 90 105
0.21298 0.472744 3.99421 201 145 118
0.241842 0.445386 3.96719 220 195 198
0.278802 0.400302 3.86771 226 236 238
0.221298 0.461888 3.92971 194 148 142
0.219175 0.47588 3.9768 186 148 103
0.238914 0.464333 3.98114 216 156 180
0.222757 0.474089 3.96299 175 88 64
0.225416 0.486807 4.01829 214 180 183
0.270944 0.432225 3.87278 142 98 33
0.303921 0.40904 3.84571 221 180 92
0.262672 0.454375 3.87641 106 65 0
0.278756 0.449234 3.86277 206 191 77
0.276221 0.457893 3.87019 172 188 150
0.316504 0.416786 3.83181 208 194 152
0.289057 0.439966 3.80472 104 60 2
0.204354 0.326372 3.87129 179 47 32
0.227739 0.464376 4.00938 247 218 236
0.220643 0.484292 4.00005 186 42 50
0.216921 0.495668 4.02803 153 12 11
0.234331 0.462339 3.93993 180 159 153
0.299094 0.394167 3.83348 176 136 67
0.29829 0.396441 3.83725 214 192 87
0.271653 0.442048 3.88726 164 86 13
0.306745 0.411291 3.8457 204 155 42
0.310067 0.413064 3.83809 210 193 72
0.300131 0.459472 3.85564 190 143 26
0.192241 0.326558 3.90477 152 40 36
0.236213 0.373786 3.8913 200 42 32
0.213238 0.462667 3.9902 192 142 124
0.222614 0.462969 4.00699 228 184 196
0.210623 0.4629 3.96068 177 124 118
0.269032 0.426133 3.90378 184 150 50
0.280559 0.431008 3.89735 91 59 10
0.262907 0.451891 3.87177 108 66 0
0.292755 0.428844 3.869 225 198 62
0.312858 0.418294 3.83765 193 141 1
0.316237 0.415943 3.83108 207 194 160
0.231922 0.382442 3.8797 74 36 20
0.242751 0.376016 3.88359 51 50 54
0.206953 0.473898 4.00648 158 114 94
0.213861 0.468947 3.9872 200 184 150
0.220508 0.490636 4.03658 134 48 64
0.267434 0.434417 3.87656 172 135 3
0.262689 0.441685 3.84785 171 138 50
0.308522 0.405311 3.82982 235 208 104
0.23251 0.381421 3.88786 122 10 4
0.229915 0.3842 3.88723 114 22 8
0.238969 0.390849 3.86042 167 158 122
0.211441 0.466848 3.9878 197 168 146
0.22542 0.451975 3.9096 148 67 54
0.271321 0.429293 3.87304 177 155 34
0.290512 0.448006 3.9165 224 201 56
0.294124 0.434409 3.79647 90 52 6
0.240937 0.374908 3.89238 159 101 102
0.249405 0.36919 3.88894 126 60 87
0.229427 0.38558 3.88774 56 22 2
0.227781 0.387407 3.88863 130 73 36
0.244891 0.408473 3.92942 234 198 202
0.245342 0.408758 3.92412 138 96 97
0.216198 0.448981 3.96561 212 166 153
0.208402 0.470648 4.01406 211 158 145
0.231276 0.428441 3.87608 211 142 124
0.21324 0.47458 3.97577 190 150 110
0.226149 0.486173 4.04102 208 141 168
0.236035 0.472238 4.00137 242 168 198
0.214892 0.489633 3.99928 194 140 104
0.218823 0.492041 4.01936 144 0 2
0.217826 0.485586 3.98939 118 39 22
0.26992 0.435321 3.88906 100 68 20
0.272782 0.443561 3.89104 97 61 50
0.275409 0.438858 3.87192 158 63 26
0.31291 0.416756 3.8374 242 235 192
0.315077 0.418187 3.83574 230 211 170
0.315986 0.415685 3.82704 132 102 6
0.283528 0.476938 3.87211 75 30 0
0.317779 0.438195 3.84682 91 48 0
0.314614 0.436474 3.83525 205 170 83
0.298855 0.453554 3.83938 79 42 4
0.204351 0.331142 3.87476 156 62 48
0.230123 0.378342 3.89686 206 68 38
0.235465 0.377341 3.85545 133 78 42
0.235135 0.401721 3.93941 225 216 206
0.298911 0.396136 3.83941 96 50 2
0.287287 0.433121 3.88827 103 80 106
0.287855 0.434381 3.88982 94 68 83
0.274892 0.4424 3.87315 150 35 0
0.290491 0.438315 3.89087 215 191 78
0.315039 0.419094 3.83596 120 90 9
0.321263 0.416017 3.81628 233 199 83
0.236708 0.373106 3.88761 218 62 48
0.24238 0.376209 3.90772 128 108 112
0.22029 0.458138 3.93797 168 63 40
0.22415 0.482655 4.03007 212 164 179
0.23204 0.473612 4.00753 240 206 226
0.27171 0.416149 3.87396 182 144 23
0.267202 0.439009 3.88537 196 130 10
0.308375 0.411927 3.8426 214 180 56
0.279689 0.446816 3.8573 218 196 63
0.204203 0.330395 3.87506 148 44 31
0.225793 0.382948 3.88637 146 40 31
0.209537 0.456299 3.97185 167 114 112
0.213996 0.471908 4.01076 237 214 206
0.222408 0.484468 4.03177 220 181 186
0.220524 0.490211 4.0354 137 37 57
0.268227 0.427955 3.90755 198 166 63
0.26789 0.434708 3.87324 184 131 8
0.308346 0.409155 3.83581 220 188 80
0.299033 0.465645 3.86802 153 110 36
0.239543 0.397518 3.92442 126 129 126
0.2103 0.479207 4.02859 245 213 205
0.207349 0.486179 4.04247 244 203 192
0.27211 0.45014 3.90261 58 6 4
0.316317 0.415291 3.82901 208 195 159
0.230921 0.38391 3.8854 47 18 4
0.213596 0.459679 3.99824 224 198 178
0.233007 0.462037 3.99083 222 134 178
0.225383 0.485798 4.01678 176 101 111
0.297532 0.4079 3.87414 133 90 34
0.277535 0.445395 3.88056 50 8 3
0.232875 0.385602 3.89487 72 59 46
0.23507 0.398955 3.93481 220 202 191
0.242871 0.38462 3.83986 176 172 154
0.210533 0.476652 4.02434 230 214 206
0.24886 0.441512 3.94567 209 196 202
0.277533 0.437158 3.91365 88 57 6
0.290171 0.4402 3.89185 72 26 8
0.31261 0.410709 3.82327 226 210 132
0.293734 0.446787 3.82057 94 55 0
0.251163 0.365433 3.88123 181 44 75
0.21748 0.455363 3.96862 210 194 167
0.217809 0.460559 3.98147 212 213 190
0.242968 0.454167 3.98061 190 148 160
0.26681 0.436247 3.88283 177 143 2
0.306357 0.389806 3.82038 159 140 116
0.321582 0.417449 3.81803 118 72 20
0.217014 0.319657 3.83913 136 52 66
0.238477 0.399817 3.93521 182 182 168
0.240473 0.413927 3.94132 193 164 146
0.242197 0.414661 3.94444 117 72 78
0.277526 0.441823 3.87127 154 119 22
0.212063 0.319194 3.84083 179 102 113
0.230905 0.370675 3.88067 202 96 38
0.236091 0.382776 3.88457 43 31 18
0.307037 0.407628 3.83555 140 94 10
0.241738 0.37537 3.90046 176 110 110
0.22489 0.390505 3.89154 138 60 54
0.219516 0.444671 3.95307 212 158 144
0.236421 0.472759 3.99757 186 150 155
0.274985 0.442158 3.87214 160 47 0
0.306656 0.38591 3.8077 156 138 110
0.291959 0.42809 3.86883 208 132 10
0.273489 0.417129 3.89916 194 160 34
0.308919 0.446084 3.84166 116 72 5
0.213327 0.457646 3.99342 202 196 169
0.213453 0.463205 3.99146 206 170 146
0.297109 0.407298 3.87393 188 137 25
0.282845 0.430167 3.89342 78 39 26
0.307928 0.381808 3.79488 150 123 86
0.249955 0.442843 3.93781 192 21 38
0.29823 0.396984 3.84194 163 116 9
0.302667 0.411381 3.84655 221 176 8
0.235004 0.375158 3.89761 224 68 58
0.251774 0.38644 3.91169 190 194 173
0.235978 0.403705 3.94086 110 110 102
0.237067 0.416233 3.94351 136 118 95
0.248695 0.429032 3.85915 185 164 158
0.311603 0.41577 3.83837 180 146 43
0.203602 0.326217 3.86472 167 50 44
0.213709 0.452852 3.9584 220 160 138
0.288195 0.437679 3.89483 171 102 46
0.319306 0.434973 3.84515 142 104 17
0.243748 0.376811 3.88293 62 61 66
0.226257 0.435845 3.89171 178 120 114
0.233471 0.457439 3.9946 250 212 227
0.242235 0.45526 3.95306 238 248 250
0.247442 0.431153 3.86359 186 176 172
0.306791 0.390189 3.81881 170 145 80
0.310574 0.411606 3.83583 98 76 14
0.30502 0.406789 3.84278 182 99 20
0.306637 0.41053 3.84441 164 114 24
0.201187 0.323992 3.86948 226 198 202
0.217094 0.320201 3.81904 220 183 191
0.233681 0.379907 3.85591 137 47 29
0.207616 0.471823 4.00474 130 64 52
0.222627 0.461981 3.96644 204 87 33
0.291943 0.429263 3.8681 225 203 82
0.311121 0.4239 3.86905 228 208 156
0.243005 0.384823 3.84028 167 160 130
0.226205 0.389109 3.89404 143 34 21
0.302694 0.418291 3.87033 204 152 56
0.237259 0.383217 3.91213 134 132 127
0.275855 0.40874 3.87452 215 193 108
0.280691 0.421366 3.87124 218 189 65
0.304224 0.409732 3.85158 199 96 2
0.276703 0.454171 3.86849 174 212 200
0.203106 0.325955 3.87281 199 58 50
0.214241 0.333103 3.85119 164 44 34
0.235336 0.387835 3.87416 209 200 145
0.248293 0.385389 3.91477 144 147 134
0.241155 0.388907 3.85066 167 165 144
0.27515 0.382095 3.8629 132 136 132
0.226162 0.450984 3.98544 216 184 184
0.223294 0.444209 3.926 164 118 102
0.232542 0.459686 4.00024 228 162 182
0.23301 0.462158 3.99008 230 150 196
0.221819 0.484056 4.02466 158 22 55
0.275886 0.412179 3.89158 202 173 50
0.256876 0.426076 3.88982 96 52 0
0.258639 0.421158 3.87118 75 44 6
0.249275 0.439271 3.91163 144 66 76
0.220879 0.500325 4.05015 211 188 188
0.297955 0.407299 3.87398 118 72 2
0.257689 0.45488 3.90287 124 173 178
0.28575 0.443191 3.91537 140 127 142
0.290558 0.438563 3.89492 168 116 6
0.283475 0.372883 3.69626 120 83 3
0.311677 0.413522 3.84135 220 201 142
0.278949 0.441789 3.84928 154 134 12
0.311501 0.415399 3.84363 112 104 70
0.281746 0.443409 3.84901 148 100 0
0.314534 0.418375 3.83613 198 176 116
0.31036 0.436223 3.82496 186 156 102
0.208227 0.32549 3.85918 206 70 62
0.22622 0.356439 3.86686 214 128 66
0.227599 0.383527 3.88346 169 48 36
0.247913 0.370903 3.89228 185 157 175
0.229463 0.385083 3.90106 118 42 18
0.231992 0.382406 3.87604 60 24 2
0.234333 0.379688 3.86027 144 108 58
0.230566 0.405221 3.90461 172 170 151
0.255472 0.394053 3.94181 150 160 169
0.234937 0.422098 3.90906 206 179 174
0.224747 0.442727 3.96137 232 198 189
0.240489 0.432589 3.94088 211 131 130
0.230907 0.457935 4.00332 222 184 192
0.214018 0.473878 3.97389 192 153 112
0.225545 0.476178 4.01468 184 58 79
0.190393 0.524844 4.10285 185 109 72
0.190405 0.521149 4.08339 131 54 38
0.251287 0.434827 3.89246 136 120 71
0.271848 0.440941 3.8851 144 72 14
0.263183 0.452556 3.8736 106 72 6
0.278449 0.442961 3.852 158 148 50
0.311038 0.413681 3.84069 96 84 28
0.30485 0.460529 3.86583 102 56 0
0.229843 0.356802 3.87196 192 67 64
0.24041 0.414012 3.93981 118 81 48
0.275164 0.381929 3.86203 161 168 166
0.218036 0.444308 3.95171 158 94 95
0.216305 0.466196 3.97565 190 110 94
0.218359 0.465651 3.95294 180 134 98
0.276057 0.411119 3.90248 249 254 252
0.226347 0.45602 3.91457 121 65 56
0.260623 0.429008 3.90088 96 75 29
0.300187 0.415017 3.85772 252 152 96
0.261126 0.460096 3.88959 107 69 1
0.309082 0.416312 3.8489 194 168 50
0.314696 0.401691 3.81663 220 202 152
0.311197 0.413837 3.83943 190 184 146
0.312839 0.416884 3.83756 211 196 127
0.315937 0.41561 3.82639 146 110 1
0.320999 0.422508 3.82538 217 188 40
0.205605 0.321338 3.86241 161 78 84
0.207269 0.32982 3.8744 170 30 26
0.255141 0.393953 3.94203 176 184 192
0.254092 0.403812 3.94288 172 182 185
0.277791 0.374834 3.83432 176 183 182
0.233866 0.422854 3.91169 186 184 188
0.223757 0.434043 3.92225 168 98 104
0.226423 0.432242 3.91956 198 186 158
0.24637 0.417194 3.89613 212 147 146
0.209403 0.487207 4.03369 208 87 32
0.279926 0.395622 3.85673 194 188 148
0.227333 0.475973 4.0124 216 180 194
0.217098 0.48242 3.98939 188 139 99
0.233389 0.476588 4.0097 236 250 250
0.209493 0.508466 4.04989 159 45 40
0.298983 0.389485 3.81676 222 197 84
0.290718 0.438812 3.88709 74 24 0
0.308847 0.416679 3.85032 210 180 49
0.278554 0.4418 3.84964 158 145 48
0.310513 0.415499 3.84267 216 204 107
0.27927 0.450071 3.86073 186 162 90
0.31282 0.412609 3.8233 210 158 7
0.236314 0.379786 3.91032 206 128 124
0.234792 0.379264 3.85823 156 133 82
0.262908 0.379122 3.88129 159 168 179
0.263653 0.384092 3.87025 164 176 180
0.227819 0.435902 3.94506 156 90 91
0.22752 0.428086 3.90455 172 86 92
0.20799 0.48047 4.01506 212 178 149
0.241276 0.448166 3.9732 196 164 172
0.276809 0.408203 3.8926 206 218 221
0.224896 0.456701 3.91818 140 58 44
0.234963 0.478148 4.00369 132 116 57
0.262432 0.4536 3.87633 112 70 0
0.25179 0.365961 3.88136 188 56 86
0.228802 0.431097 3.93811 183 186 190
0.222793 0.43577 3.92612 172 105 111
0.215022 0.456214 3.98474 232 191 175
0.212856 0.464162 3.97866 137 82 68
0.225466 0.464845 4.00826 250 215 230
0.210985 0.531331 4.1535 236 243 246
0.254413 0.433016 3.90348 78 45 10
0.220013 0.4801 3.9797 146 27 16
0.258569 0.433095 3.91203 110 90 40
0.239972 0.450138 3.9114 180 170 164
0.304926 0.416853 3.87232 196 98 4
0.247343 0.37134 3.88567 159 157 160
0.219832 0.449759 3.97791 208 208 186
0.221653 0.46122 4.00652 220 183 188
0.240986 0.449545 3.97753 219 197 202
0.221822 0.458652 3.93634 182 136 97
0.213098 0.484249 3.99968 199 151 108
0.220714 0.495312 4.04316 201 160 168
0.232648 0.465908 3.96144 186 7 18
0.232275 0.485178 4.02144 130 114 56
0.289178 0.435563 3.79589 122 80 12
0.2317 0.367826 3.87165 188 79 29
0.227895 0.438645 3.95471 184 68 64
0.21755 0.454519 3.93013 200 171 162
0.258834 0.4302 3.9051 126 105 46
0.247587 0.445464 3.91959 170 163 131
0.308439 0.411154 3.84636 240 214 107
0.25261 0.364829 3.87223 232 193 216
0.238873 0.436264 3.95209 209 147 146
0.242997 0.442564 3.95901 212 186 192
0.248517 0.443774 3.95356 186 182 166
0.225968 0.48544 4.01191 140 38 42
0.227019 0.462488 3.9998 211 154 176
0.231067 0.485322 4.02707 218 214 206
0.226099 0.48795 4.01853 206 182 180
0.30999 0.415313 3.84591 88 60 2
0.319631 0.384399 3.75212 132 86 12
0.232543 0.38005 3.86329 138 20 15
0.218004 0.443723 3.93657 158 96 88
0.22033 0.44815 3.9498 166 104 88
0.233781 0.461356 3.98963 216 114 156
0.222352 0.479294 3.97974 203 84 84
0.278312 0.443747 3.85398 152 144 57
0.310385 0.413454 3.83795 214 207 125
0.321659 0.413635 3.80809 84 36 1
0.191463 0.326375 3.90544 180 106 102
0.231783 0.458547 4.00069 244 239 244
0.202753 0.322357 3.87094 160 66 70
0.272059 0.425238 3.92493 201 168 28
0.260476 0.428185 3.89867 100 81 37
0.2437 0.368281 3.88506 210 92 131
0.222986 0.461003 3.92879 136 76 62
0.267673 0.443731 3.90633 59 30 8
0.315318 0.417716 3.83191 132 98 0
0.298537 0.465809 3.86831 147 112 40
0.210305 0.319297 3.84223 158 52 60
0.228191 0.372522 3.89014 196 88 42
0.2385 0.444471 3.97229 172 72 80
0.27557 0.411676 3.90549 203 215 218
0.297177 0.40053 3.84946 220 193 22
0.321218 0.413486 3.8083 180 140 61
0.281809 0.434599 3.9052 80 34 17
0.261992 0.443868 3.88782 110 54 12
0.309216 0.440415 3.83137 188 148 48
0.228589 0.431615 3.93141 162 123 127
0.227771 0.483008 4.00479 177 116 118
0.225324 0.478032 3.97497 138 80 69
0.262139 0.443432 3.88644 116 68 32
0.309045 0.414052 3.84298 143 114 22
0.222598 0.363337 3.90417 199 71 66
0.21628 0.457363 3.95984 151 101 85
0.267736 0.44222 3.9018 122 96 34
0.205267 0.330311 3.87083 134 26 24
0.268336 0.427044 3.90734 189 162 88
0.308163 0.400251 3.81199 227 196 88
0.31135 0.410659 3.83296 182 174 132
0.288736 0.42858 3.78226 144 93 10
0.218067 0.460543 3.963 218 181 153
0.310498 0.414491 3.83959 214 197 92
0.251477 0.365866 3.88189 188 50 84
0.223202 0.436016 3.92577 170 83 92
0.226093 0.454925 3.94672 209 78 35
0.217281 0.49173 4.04167 183 6 26
0.304027 0.413811 3.85985 234 198 90
0.240512 0.375481 3.89665 158 74 84
0.237352 0.415877 3.94149 191 182 167
0.274297 0.438005 3.8717 173 84 29
0.309825 0.415576 3.84627 94 71 7
0.23194 0.456896 3.95305 207 103 116
0.224232 0.470345 3.95553 152 38 34
0.277992 0.440813 3.87138 56 14 6
0.218814 0.315879 3.8192 161 96 107
0.219148 0.323808 3.82533 180 79 60
0.23355 0.457374 3.99225 246 188 210
0.216877 0.321271 3.82914 178 48 38
0.255115 0.363118 3.86532 172 66 98
0.277615 0.406101 3.88536 190 194 184
0.265764 0.431748 3.90991 171 138 11
0.222154 0.493285 4.0316 170 22 36
0.279489 0.453681 3.87192 169 124 2
0.233613 0.379917 3.85558 148 58 48
0.199076 0.339517 3.90283 162 50 34
0.236396 0.373117 3.88886 218 66 54
0.24373 0.369069 3.88612 238 122 164
0.247673 0.369641 3.88326 167 100 110
0.231081 0.383503 3.88636 50 16 0
0.239447 0.381222 3.90758 114 114 116
0.240599 0.380565 3.90419 87 88 86
0.231255 0.389338 3.90715 66 52 25
0.233796 0.383949 3.87245 205 200 145
0.253039 0.3783 3.88504 140 144 134
0.23367 0.403507 3.93907 98 86 67
0.258921 0.387383 3.9147 136 147 160
0.241078 0.412338 3.93391 109 68 45
0.220251 0.462361 3.96729 158 45 12
0.205837 0.485128 4.00443 191 106 73
0.207279 0.484271 3.99825 135 44 24
0.213217 0.48367 3.97941 96 41 15
0.263718 0.414884 3.81135 116 87 18
0.259131 0.457596 3.89936 129 144 122
0.309603 0.411758 3.83718 74 50 0
0.309699 0.411972 3.83579 215 206 129
0.31379 0.416129 3.83317 178 155 106
0.321143 0.396342 3.77799 111 68 4
0.216391 0.349524 3.89038 197 61 63
0.235085 0.374171 3.88596 198 40 42
0.249107 0.366824 3.86574 172 102 115
0.251967 0.364978 3.86371 145 76 88
0.249854 0.368536 3.88259 215 202 218
0.232946 0.385741 3.90915 188 166 124
0.237983 0.382695 3.90882 71 68 68
0.236019 0.381871 3.88463 52 42 20
0.236441 0.400687 3.93946 158 158 149
0.241706 0.411137 3.93037 130 86 56
0.25254 0.39538 3.87758 132 96 90
0.216854 0.447717 3.96238 207 170 154
0.223882 0.454213 3.99498 220 181 186
0.236742 0.473313 4.00284 168 56 72
0.306207 0.387214 3.81209 156 130 90
0.286659 0.437907 3.90331 237 208 172
0.303973 0.410223 3.84934 238 194 68
0.291114 0.43522 3.88387 213 186 78
0.31001 0.410964 3.83309 215 206 129
0.311513 0.412428 3.82971 203 156 10
0.321427 0.400797 3.78683 112 66 4
0.299306 0.466071 3.86654 78 32 0
0.251978 0.366581 3.87712 129 51 81
0.232674 0.381557 3.87424 58 24 1
0.23421 0.383081 3.87015 192 186 132
0.224909 0.41225 3.91648 156 156 148
0.21751 0.4516 3.93185 157 114 106
0.282806 0.383371 3.84188 195 172 15
0.233559 0.453102 3.98874 234 206 215
0.231227 0.46115 4.00774 245 228 235
0.246931 0.448626 3.96236 227 200 200
0.231955 0.480719 4.02127 242 244 247
0.220928 0.498788 4.04798 214 184 187
0.277496 0.436743 3.91317 174 141 42
0.306367 0.386245 3.80931 144 120 92
0.276438 0.435932 3.87122 82 45 50
0.315596 0.4164 3.82927 128 96 1
0.321573 0.403623 3.79508 102 59 5
0.318617 0.430933 3.83539 104 68 2
0.24048 0.390102 3.85288 162 160 141
0.207322 0.467735 3.97117 177 126 124
0.204591 0.488325 4.03658 208 188 150
0.274291 0.414369 3.89139 200 167 50
0.23141 0.482393 4.01955 219 226 222
0.29682 0.408311 3.87359 102 60 14
0.291836 0.434782 3.87804 80 33 2
0.307736 0.411456 3.84098 200 162 52
0.221252 0.31907 3.80845 216 195 204
0.25729 0.360127 3.85071 164 58 90
0.227499 0.388972 3.89384 149 116 75
0.213268 0.460625 4.00064 235 193 178
0.202981 0.470219 4.00189 204 170 142
0.243717 0.440388 3.95365 219 180 186
0.211968 0.49007 4.01117 187 152 106
0.281034 0.420938 3.87052 102 68 12
0.283176 0.430225 3.89319 84 42 27
0.306724 0.381914 3.79657 155 130 93
0.31547 0.419384 3.83628 132 96 0
0.321641 0.400398 3.78615 142 102 26
0.18937 0.324829 3.903 222 195 197
0.254052 0.363718 3.86739 176 52 87
0.238681 0.374612 3.84112 149 116 75
0.21999 0.440552 3.94344 166 90 94
0.210469 0.49025 4.01339 193 152 105
0.274204 0.415324 3.89379 176 144 4
0.211577 0.454267 3.97971 164 90 92
0.219895 0.448035 3.97629 204 195 176
0.207874 0.470945 4.01311 175 112 102
0.274185 0.414676 3.8922 203 172 58
0.214056 0.492534 4.01216 140 8 10
0.239967 0.46475 3.96731 130 103 42
0.298278 0.398989 3.84797 152 108 36
0.271505 0.428671 3.87249 174 148 60
0.27951 0.441714 3.87071 51 12 1
0.30933 0.41021 3.83356 73 48 2
0.27661 0.456325 3.87666 177 197 152
0.231986 0.37563 3.8838 178 36 14
0.213201 0.45774 3.94657 154 103 97
0.270148 0.425739 3.92249 202 179 88
0.299217 0.390192 3.82158 205 160 38
0.30303 0.409363 3.85107 222 94 0
0.262618 0.45378 3.87229 117 66 1
0.276636 0.453889 3.87256 171 204 186
0.196953 0.334963 3.90068 180 70 52
0.232195 0.38491 3.89462 90 74 58
0.242811 0.411914 3.94246 226 189 196
0.23481 0.476782 4.00643 215 193 167
0.290702 0.437899 3.89012 220 195 92
0.204988 0.321173 3.86545 166 104 112
0.2384 0.376948 3.89562 158 63 74
0.25537 0.362746 3.86252 133 84 112
0.209056 0.459465 3.97651 216 166 142
0.221258 0.459285 4.00615 184 142 144
0.209676 0.488544 3.99406 138 69 36
0.306787 0.407925 3.83721 120 72 2
0.241274 0.374965 3.89544 138 30 46
0.259423 0.442946 3.87079 132 150 117
0.253548 0.462416 3.91115 176 185 143
0.206423 0.329818 3.87806 177 46 42
0.258477 0.432469 3.90671 98 76 30
0.300283 0.454985 3.84571 135 91 21
0.206804 0.472465 4.0163 184 140 120
0.257793 0.3899 3.87828 138 138 128
0.268908 0.438879 3.89732 104 74 26
0.306666 0.406293 3.8337 166 115 22
0.211245 0.461012 3.95466 162 102 102
0.25251 0.363908 3.87008 177 34 66
0.271151 0.443982 3.87128 157 54 4
0.308983 0.412032 3.83877 76 46 1
0.206943 0.329654 3.86667 164 79 64
0.282653 0.428214 3.89155 216 179 43
0.246455 0.372867 3.89092 184 190 184
0.205867 0.463479 4.00574 158 95 99
0.242073 0.444338 3.96421 192 148 152
0.237622 0.431035 3.87109 184 140 98
0.287639 0.434492 3.89366 201 192 180
0.310466 0.416394 3.84806 168 147 100
0.229877 0.387906 3.88775 184 177 125
0.209889 0.45571 3.96971 168 124 123
0.309114 0.424906 3.86867 90 70 28
0.299449 0.394128 3.83341 98 60 2
0.27789 0.441132 3.87108 92 48 21
0.228517 0.372114 3.88943 196 92 38
0.235203 0.470859 3.99545 226 238 239
0.290913 0.471432 3.86948 112 72 7
0.298033 0.46631 3.86826 183 139 16
0.231291 0.386343 3.8802 180 173 122
0.246064 0.448497 3.95329 192 9 36
0.22845 0.48449 4.03128 211 219 222
0.279019 0.42981 3.89316 146 118 32
0.241043 0.372894 3.90599 222 83 120
0.22737 0.408682 3.90536 158 159 145
0.236204 0.41943 3.89784 148 106 101
0.238255 0.435043 3.9487 201 130 126
0.213793 0.466562 3.98037 170 117 91
0.274581 0.413425 3.91143 172 185 186
0.223582 0.483083 4.02122 224 196 202
0.218455 0.482327 3.98704 130 10 3
0.240369 0.467192 3.98846 172 113 48
0.238826 0.383414 3.90807 150 147 136
0.280795 0.390019 3.86505 193 168 10
0.22421 0.468844 4.01887 215 159 174
0.216682 0.471663 3.97076 190 123 84
0.299337 0.394942 3.83587 116 74 4
0.208048 0.320516 3.85724 136 65 72
0.257252 0.390016 3.92523 156 165 176
0.239053 0.415159 3.88558 162 108 104
0.255951 0.413307 3.82025 180 158 152
0.307045 0.406114 3.8323 142 92 8
0.203454 0.32307 3.86216 228 192 195
0.23327 0.400637 3.87823 178 178 173
0.266141 0.438903 3.83936 130 82 0
0.277514 0.446577 3.85984 175 174 98
0.20741 0.329961 3.86388 133 36 24
0.225632 0.390864 3.91096 63 38 6
0.273672 0.41748 3.89998 181 150 18
0.258798 0.432166 3.90868 101 79 35
0.271535 0.44639 3.87595 158 108 22
0.231754 0.402525 3.89735 166 157 122
0.219519 0.440068 3.92866 186 144 147
0.209608 0.475662 4.02378 222 207 190
0.231088 0.47654 4.01916 196 38 80
0.312103 0.408919 3.83085 216 190 110
0.249345 0.367692 3.8904 190 50 80
0.219485 0.440191 3.93139 188 136 139
0.277406 0.437248 3.91601 222 192 43
0.254181 0.402697 3.94071 174 182 183
0.239716 0.417388 3.8651 202 204 176
0.231579 0.454232 3.91988 167 67 52
0.218787 0.481566 3.9822 190 100 78
0.204702 0.331654 3.87566 150 54 43
0.233101 0.381189 3.85876 130 71 54
0.280536 0.451197 3.86467 167 122 8
0.239898 0.40428 3.88713 134 118 85
0.229462 0.469977 3.97076 174 8 12
0.210093 0.319179 3.83928 160 83 76
0.193379 0.325097 3.90375 170 120 128
0.251097 0.367194 3.88766 142 64 92
0.242382 0.412641 3.9434 200 190 186
0.319008 0.427449 3.82679 94 59 0
0.233989 0.380062 3.8636 124 92 46
0.221986 0.480993 4.01567 185 13 32
0.305495 0.413341 3.85852 160 100 4
0.215788 0.467733 4.00031 248 210 196
0.313853 0.433664 3.82767 190 155 43
0.20437 0.321798 3.86912 138 52 64
0.297415 0.399984 3.84755 217 189 39
0.204893 0.321503 3.86138 169 86 78
0.31066 0.411759 3.83375 224 218 162
0.210555 0.480599 3.99098 158 106 64
0.311659 0.410815 3.83458 222 202 142
0.311002 0.413414 3.83824 143 134 92
0.318596 0.427047 3.82754 114 78 4
0.308638 0.413971 3.84296 198 169 51
0.273116 0.451238 3.89164 170 112 5
0.211428 0.483744 3.98305 120 34 30
0.313388 0.413512 3.82505 196 150 20
0.212454 0.323095 3.8463 212 70 68
0.196214 0.333562 3.9004 190 92 81
0.205261 0.330302 3.87387 120 26 10
0.206524 0.330953 3.8707 184 66 46
0.23969 0.395696 3.91637 202 190 180
0.249446 0.406209 3.93352 136 139 139
0.221708 0.476651 4.02275 186 32 30
0.206367 0.484552 4.00338 198 103 76
0.280536 0.39891 3.86393 135 120 32
0.207175 0.493026 4.00407 162 96 66
0.260401 0.427388 3.89303 98 76 30
0.232002 0.483916 4.02573 221 190 156
0.265167 0.426221 3.89386 108 93 60
0.269796 0.436798 3.88447 72 32 8
0.255365 0.463731 3.92238 126 178 189
0.259757 0.444955 3.8717 134 123 52
0.289924 0.433143 3.88348 229 146 26
0.264727 0.447842 3.87089 124 125 88
0.300304 0.459845 3.85496 190 138 50
0.205404 0.329724 3.87217 156 44 36
0.230677 0.388585 3.90306 50 36 22
0.261449 0.384263 3.89879 214 228 236
0.252953 0.399984 3.91287 141 143 139
0.22711 0.429454 3.9175 154 116 116
0.208619 0.464873 3.96573 148 76 66
0.224464 0.475253 4.02787 226 116 154
0.20053 0.504857 4.07021 195 63 32
0.221699 0.488453 4.0465 194 150 172
0.273226 0.414982 3.88695 184 164 46
0.21893 0.473081 3.95472 100 38 32
0.216418 0.49406 4.01628 194 75 60
0.250393 0.446779 3.88046 110 66 20
0.255954 0.462255 3.91826 128 177 182
0.288914 0.4255 3.87016 129 108 130
0.264851 0.448199 3.87102 128 124 79
0.275353 0.442512 3.87187 182 114 18
0.263997 0.44245 3.84409 132 84 0
0.260621 0.462192 3.89188 116 82 19
0.313743 0.415338 3.83177 187 161 110
0.319948 0.425405 3.82941 118 74 6
0.318683 0.427176 3.8281 106 68 2
0.244639 0.371744 3.88541 208 178 174
0.219967 0.443107 3.95057 205 158 145
0.212446 0.463727 4.01556 243 181 180
0.283307 0.382104 3.83722 203 180 22
0.235069 0.453504 3.98663 248 230 241
0.245967 0.44975 3.96633 204 173 174
0.219565 0.492822 4.04761 232 210 215
0.276034 0.409739 3.87849 195 162 30
0.231861 0.484907 4.03485 157 38 37
0.298926 0.395348 3.8362 128 90 39
0.310801 0.412494 3.83612 168 160 116
0.311539 0.412434 3.83004 190 146 23
0.319843 0.427541 3.83374 118 74 6
0.224522 0.367786 3.89117 216 135 62
0.225518 0.382908 3.88703 156 40 29
0.224235 0.413348 3.92252 206 208 183
0.249802 0.395746 3.87905 150 110 84
0.217578 0.445016 3.95423 174 100 102
0.219498 0.451129 3.98513 221 204 190
0.213973 0.465938 4.00127 188 103 108
0.280287 0.398867 3.84749 200 172 51
0.253222 0.426143 3.86726 168 48 60
0.263351 0.453037 3.87243 130 86 24
0.291858 0.435558 3.87691 76 26 2
0.311292 0.414745 3.83562 201 154 17
0.299954 0.44968 3.83505 182 136 31
0.197071 0.333665 3.90143 158 60 50
0.243766 0.373481 3.89058 216 186 181
0.248026 0.370467 3.88211 143 138 138
0.244122 0.387054 3.88173 118 100 58
0.231381 0.464571 4.01329 192 55 82
0.20737 0.492681 4.0001 136 32 28
0.258808 0.431239 3.90441 108 86 47
0.283281 0.429552 3.89154 94 51 34
0.250397 0.46933 3.93001 136 152 124
0.304644 0.40777 3.84542 200 109 16
0.262549 0.447799 3.85527 126 75 0
0.30902 0.425303 3.86877 146 135 90
0.319963 0.426139 3.83098 118 74 6
0.2633 0.386824 3.88086 168 180 183
0.208668 0.490144 3.99461 139 32 28
0.217313 0.487108 3.99688 154 26 16
0.257338 0.452363 3.88901 170 172 118
0.305904 0.39703 3.81745 202 112 16
0.261404 0.451901 3.86366 126 76 0
0.231613 0.37628 3.88811 179 44 10
0.206309 0.463823 3.98469 192 178 141
0.313854 0.394837 3.79809 219 204 174
0.253383 0.363474 3.85339 122 104 110
0.220025 0.440105 3.93958 168 88 92
0.240602 0.458737 3.99316 203 170 170
0.259455 0.41766 3.87023 198 12 48
0.270607 0.458884 3.90567 163 92 1
0.281645 0.439523 3.86544 57 16 2
0.226331 0.366879 3.88607 232 142 68
0.239696 0.430349 3.9361 224 160 149
0.23131 0.429165 3.87589 143 86 78
0.24705 0.44872 3.96296 226 210 196
0.259739 0.423151 3.88473 162 116 74
0.223744 0.492468 4.02934 134 63 74
0.266354 0.439034 3.88261 199 136 18
0.286352 0.434238 3.88916 59 22 39
0.308674 0.416998 3.8506 92 63 12
0.313981 0.401381 3.81697 216 193 150
0.27992 0.448825 3.86031 198 160 26
0.283605 0.438772 3.83863 153 103 0
0.220886 0.354299 3.87581 195 101 44
0.198205 0.491109 4.04559 172 102 79
0.244501 0.439061 3.95035 215 166 171
0.235417 0.480103 4.03356 164 104 72
0.209934 0.487093 3.98519 162 117 117
0.190755 0.54061 4.1174 118 32 18
0.250784 0.447133 3.88028 74 36 0
0.306731 0.408914 3.84049 130 82 6
0.239823 0.396943 3.92309 132 133 128
0.216084 0.44687 3.94562 155 98 90
0.232745 0.430492 3.90618 170 117 104
0.206312 0.474911 4.0085 157 103 80
0.225364 0.481294 4.02732 242 221 238
0.215964 0.494525 4.01707 180 52 55
0.286372 0.433903 3.88775 65 32 44
0.307519 0.414884 3.8487 193 157 35
0.313188 0.419464 3.8408 188 147 30
0.294963 0.446351 3.81931 68 28 0
0.244646 0.371742 3.8856 203 178 176
0.262443 0.381172 3.89144 147 154 167
0.262898 0.381591 3.88898 217 230 238
0.21259 0.462906 3.9798 122 52 38
0.228005 0.450892 3.97703 196 130 139
0.173977 0.572656 4.19403 182 86 66
0.304269 0.417126 3.87119 184 100 18
0.313627 0.404223 3.82347 217 196 138
0.225117 0.350093 3.85948 200 124 54
0.243109 0.368898 3.88666 208 101 141
0.254785 0.363185 3.86455 163 60 88
0.263206 0.379735 3.88637 148 156 169
0.213392 0.450453 3.95623 157 84 87
0.209289 0.46794 4.00196 186 148 126
0.244337 0.455901 3.96083 180 50 66
0.217848 0.492663 4.02167 170 29 33
0.244747 0.372301 3.88535 218 210 202
0.206442 0.463781 3.98407 192 179 138
0.227173 0.476772 4.01367 234 226 236
0.199846 0.498133 4.01497 162 100 99
0.309492 0.410113 3.83336 92 65 17
0.229699 0.380276 3.91766 198 42 32
0.231296 0.386269 3.8819 186 178 123
0.235221 0.401649 3.88092 165 156 126
0.243096 0.45723 3.9487 146 114 52
0.302463 0.412855 3.85332 204 140 4
0.232398 0.367845 3.87112 188 80 34
0.230829 0.432413 3.93871 177 91 72
0.213194 0.476368 4.05141 221 220 217
0.204621 0.482819 3.98453 188 174 178
0.226745 0.476327 4.0106 231 199 208
0.25786 0.431079 3.90528 135 112 58
0.234587 0.478807 3.99711 137 126 72
0.26047 0.422207 3.82801 118 74 16
0.299207 0.451918 3.83875 184 142 20
0.250554 0.368237 3.88435 184 150 174
0.23565 0.403182 3.93922 96 92 88
0.267395 0.435344 3.87486 189 130 14
0.309061 0.409787 3.83265 126 102 28
0.312724 0.416893 3.83767 209 194 123
0.268211 0.432581 3.86958 177 131 6
0.273755 0.440521 3.87963 104 42 20
0.309782 0.414014 3.84239 93 68 16
0.252141 0.379131 3.8884 214 218 207
0.217199 0.482683 3.98934 176 143 98
0.241213 0.402908 3.88299 134 119 82
0.211448 0.469244 3.99077 202 174 145
0.204257 0.322394 3.87257 131 40 58
0.231525 0.387824 3.91681 194 176 134
0.310144 0.412632 3.83884 106 85 30
0.206603 0.320573 3.85699 206 154 156
0.264478 0.425599 3.89252 135 118 91
0.242783 0.412934 3.93632 116 73 71
0.238722 0.382758 3.91046 152 152 167
0.260322 0.436268 3.92244 138 124 92
0.290936 0.438435 3.89384 182 126 10
0.27532 0.439327 3.87169 119 20 0
0.281622 0.44448 3.8773 114 76 9
0.202382 0.321833 3.87291 167 104 115
0.203495 0.321616 3.87169 164 102 119
0.206421 0.320722 3.85512 193 130 134
0.222225 0.487568 4.02556 152 32 48
0.223933 0.318178 3.81033 204 64 58
0.227525 0.359032 3.88599 228 97 114
0.231189 0.458304 3.99202 235 178 200
0.239716 0.466911 3.98733 146 42 25
0.258257 0.388345 3.91877 126 133 148
0.286201 0.452629 3.82631 177 122 30
0.230714 0.3122 3.78845 208 160 170
0.236892 0.470057 3.99363 242 240 236
0.244966 0.373692 3.91017 199 132 154
0.203531 0.321945 3.87196 148 78 92
0.204591 0.322515 3.87167 130 39 60
0.212875 0.359898 3.90465 206 119 60
0.222914 0.362841 3.90405 228 98 120
0.239696 0.395227 3.92428 202 196 170
0.255263 0.381207 3.89011 198 197 176
0.243899 0.422222 3.8738 170 46 32
0.254426 0.42603 3.91131 118 90 76
0.247983 0.442241 3.95216 120 102 88
0.227125 0.482408 4.0333 163 68 100
0.214708 0.507638 4.05305 156 112 93
0.268757 0.427767 3.90212 251 216 36
0.258248 0.466618 3.90835 170 157 102
0.271764 0.445587 3.8714 130 118 28
0.308249 0.406008 3.82729 122 80 8
0.308754 0.444597 3.83856 196 153 47
0.194887 0.330457 3.90112 199 59 62
0.228311 0.382304 3.87895 160 30 27
0.230652 0.383455 3.8636 126 72 66
0.21107 0.453851 3.96341 144 99 96
0.205727 0.47461 4.02527 194 126 120
0.28281 0.383197 3.84055 200 176 16
0.216841 0.449079 3.93089 164 135 126
0.213776 0.472953 3.97241 130 39 18
0.274364 0.414037 3.89024 193 162 42
0.279216 0.399349 3.84484 206 182 38
0.216195 0.50879 4.07238 226 191 194
0.210298 0.514695 4.07334 171 15 23
0.26923 0.426517 3.89893 242 206 28
0.250531 0.447295 3.87984 64 22 0
0.275894 0.438933 3.8651 165 47 0
0.309189 0.418586 3.85362 132 105 38
0.314565 0.420286 3.83936 134 98 12
0.289022 0.443337 3.80968 75 38 2
0.205129 0.326164 3.86967 192 54 55
0.204296 0.331913 3.87709 154 58 42
0.246008 0.3711 3.88473 136 114 118
0.232528 0.386247 3.90042 52 40 18
0.249938 0.436689 3.93819 130 106 90
0.207816 0.491154 4.03594 195 67 27
0.217424 0.501558 4.04226 138 36 36
0.263063 0.448398 3.8712 129 108 36
0.294232 0.419315 3.84866 193 125 12
0.258444 0.457472 3.87374 134 85 2
0.255248 0.361712 3.85923 170 56 84
0.248399 0.369274 3.87566 139 128 132
0.236027 0.381965 3.88519 64 52 34
0.235196 0.434721 3.9402 194 142 147
0.221941 0.475739 4.04002 243 209 222
0.257192 0.410754 3.81589 192 185 174
0.311756 0.403446 3.81656 217 199 148
0.321103 0.439573 3.86568 132 86 20
0.199806 0.323954 3.87281 226 199 207
0.250895 0.381288 3.89573 217 223 212
0.224664 0.41329 3.92213 206 207 184
0.211821 0.491868 4.01553 193 150 116
0.205959 0.510675 4.04912 141 30 14
0.208211 0.329303 3.86345 163 75 64
0.228719 0.372843 3.88941 198 96 36
0.277241 0.406449 3.88657 156 150 114
0.216891 0.46277 3.93676 196 171 172
0.240342 0.465292 3.98707 184 46 60
0.231125 0.475354 3.99664 199 190 196
0.262332 0.418757 3.81963 64 17 0
0.265254 0.451465 3.86644 128 79 2
0.308196 0.407357 3.82971 191 152 38
0.314515 0.4329 3.86704 130 98 11
0.252567 0.403174 3.94178 204 214 207
0.238775 0.411105 3.87892 162 152 118
0.219032 0.469624 3.94955 145 26 24
0.308698 0.375535 3.78018 160 144 130
0.236104 0.414944 3.88972 166 158 130
0.231199 0.446738 3.8969 144 30 30
0.291904 0.433147 3.88092 200 157 30
0.266427 0.439247 3.83744 127 75 0
0.231987 0.369994 3.87672 202 94 36
0.2069 0.468123 4.01618 187 106 101
0.261686 0.432908 3.91226 136 120 90
0.232121 0.386723 3.89844 77 70 59
0.303108 0.408302 3.84251 208 146 11
0.295856 0.444956 3.82056 185 136 0
0.307742 0.385761 3.80598 174 148 91
0.244505 0.410127 3.93508 116 74 80
0.31048 0.448158 3.84966 200 162 80
0.209573 0.47428 4.00225 194 145 124
0.245154 0.386172 3.88247 214 198 180
0.270502 0.419499 3.90208 180 170 100
0.220293 0.500161 4.04874 170 58 63
0.260293 0.457812 3.89265 114 104 52
0.253829 0.362234 3.86634 176 98 118
0.223526 0.49322 4.02997 146 61 68
0.227277 0.490955 4.02629 134 122 92
0.232704 0.42268 3.87802 178 160 152
0.241674 0.369455 3.88611 221 114 150
0.247776 0.36782 3.88572 178 18 46
0.221451 0.491398 4.01728 142 20 20
0.2226 0.415312 3.92772 206 200 171
0.223222 0.434502 3.93643 199 192 180
0.249455 0.437818 3.94121 122 105 90
0.269 0.439861 3.88837 136 58 1
0.307965 0.416259 3.84956 113 79 9
0.313998 0.418895 3.83852 200 176 116
0.234178 0.310895 3.77978 180 118 127
0.224108 0.384114 3.89075 157 34 28
0.21963 0.438834 3.94899 198 194 190
0.247742 0.439864 3.94787 128 104 90
0.231438 0.464929 4.00006 234 130 170
0.222157 0.485954 4.00754 194 52 60
0.312514 0.409186 3.83448 206 180 94
0.234582 0.310822 3.77838 200 148 152
0.212636 0.472518 4.0166 248 212 204
0.220506 0.464457 3.9737 212 144 102
0.238975 0.468633 3.97208 150 122 48
0.280574 0.317391 3.68234 220 130 80
0.221307 0.417533 3.93576 210 210 186
0.232095 0.4661 3.97943 178 51 72
0.228522 0.479887 4.00063 190 26 46
0.228851 0.482291 3.99597 147 150 148
0.23822 0.462404 4.00113 178 88 96
0.268114 0.43931 3.89321 164 136 40
0.294628 0.449742 3.82721 104 56 2
0.243173 0.348955 3.86002 130 57 76
0.239306 0.464973 3.98602 222 88 120
0.26558 0.437548 3.88512 163 126 0
0.279555 0.445789 3.85865 160 121 0
0.221656 0.449053 3.9808 198 134 128
0.205093 0.478101 4.03072 188 146 128
0.204173 0.322685 3.87245 136 32 58
0.222499 0.502245 4.05646 142 124 102
0.321222 0.421099 3.82495 194 153 26
0.225158 0.385321 3.9341 203 48 24
0.310067 0.428283 3.86795 214 167 18
0.257429 0.390393 3.92478 174 184 197
0.232403 0.480097 4.00288 142 120 72
0.316546 0.415699 3.83026 221 199 136
0.309728 0.415076 3.84282 216 206 114
0.311384 0.415564 3.83797 205 163 30
0.318853 0.425989 3.82505 106 66 4
0.259416 0.38691 3.91292 124 131 148
0.276977 0.438467 3.8668 160 48 4
0.190406 0.503543 4.08751 138 68 60
0.243081 0.460332 3.98023 170 99 63
0.308047 0.381235 3.79152 152 130 96
0.320079 0.415762 3.81683 241 206 38
0.221771 0.364276 3.90919 208 82 75
0.300277 0.414019 3.85629 246 140 84
0.211524 0.490402 4.01416 199 149 108
0.308731 0.418239 3.8588 188 155 50
0.280414 0.443891 3.87462 60 19 1
0.242735 0.41249 3.94782 159 130 118
0.222046 0.462912 3.96964 207 82 34
0.232958 0.466786 3.96459 184 76 82
0.299304 0.416944 3.86294 241 142 101
0.278498 0.454522 3.87001 142 109 26
0.241977 0.448664 3.97388 212 190 200
0.232357 0.466676 3.96678 198 102 108
0.29911 0.415473 3.85792 240 142 90
0.308695 0.410533 3.84234 240 211 107
0.229858 0.385315 3.90178 147 88 60
0.231609 0.466234 4.00051 224 145 192
0.293788 0.444573 3.81688 92 54 1
0.223342 0.458992 3.99962 212 214 216
0.219304 0.492566 4.0541 212 164 172
0.221857 0.48796 4.0179 178 3 10
0.232228 0.466535 3.95086 182 161 156
0.279455 0.447402 3.85439 138 108 27
0.218612 0.458569 3.95708 165 84 70
0.278709 0.438679 3.9194 116 80 18
0.321721 0.42079 3.82261 208 166 71
0.318589 0.436309 3.84356 144 100 24
0.313759 0.451799 3.86544 102 56 2
0.215824 0.460015 3.96497 144 84 70
0.309887 0.415353 3.84623 103 74 4
0.310477 0.412376 3.8377 102 81 12
0.231797 0.464245 3.99193 217 122 170
0.279836 0.444835 3.85053 156 127 58
0.322673 0.416121 3.81728 184 140 51
0.234906 0.454586 3.92742 180 34 32
0.267013 0.436142 3.88308 178 150 2
0.303638 0.414673 3.86781 229 97 0
0.223402 0.471274 3.96047 149 40 28
0.21977 0.466614 4.02016 225 199 202
0.279486 0.437401 3.86023 76 39 6
0.240591 0.451027 3.98154 167 146 140
0.228467 0.378687 3.9044 214 68 48
0.239705 0.390586 3.85887 164 162 138
0.253015 0.39924 3.96038 111 124 136
0.243437 0.410268 3.92584 118 84 78
0.229014 0.445431 3.96968 200 152 157
0.235688 0.440293 3.96403 224 179 177
0.241728 0.43021 3.93345 214 158 160
0.242862 0.442974 3.96031 228 206 217
0.235224 0.45772 3.97956 228 134 179
0.247876 0.446415 3.95965 194 191 176
0.279825 0.391286 3.83858 252 255 245
0.268541 0.430432 3.93508 164 154 67
0.272807 0.426235 3.92892 184 154 16
0.28901 0.394668 3.8595 194 157 0
0.232779 0.472606 3.97768 112 104 97
0.268399 0.439911 3.89974 55 25 3
0.273653 0.430586 3.83972 119 52 4
0.315383 0.39907 3.81071 226 200 112
0.321451 0.415913 3.81715 242 212 68
0.205365 0.326832 3.86726 203 68 68
0.210488 0.334857 3.86234 164 42 32
0.225205 0.360867 3.89031 205 76 67
0.230277 0.37588 3.89254 194 56 32
0.248942 0.409115 3.99978 121 132 142
0.240971 0.400887 3.8754 149 134 109
0.276993 0.413302 3.90917 184 170 87
0.232056 0.478167 4.0186 152 58 90
0.25507 0.429665 3.90318 86 68 24
0.23209 0.479387 4.01782 252 234 245
0.256959 0.446872 3.87807 188 194 152
0.237018 0.375055 3.83932 134 82 69
0.234726 0.471649 3.99683 244 230 240
0.272722 0.425508 3.92545 186 157 26
0.256883 0.447681 3.8797 188 194 152
0.248367 0.371448 3.90217 162 96 126
0.222724 0.436934 3.92752 164 88 90
0.237351 0.459094 3.9697 190 43 92
0.258411 0.419435 3.87308 95 76 36
0.257173 0.423883 3.87985 82 62 23
0.241299 0.445057 3.90069 179 161 146
0.263737 0.437175 3.871 106 56 20
0.262936 0.439099 3.84143 158 125 40
0.249386 0.394845 3.82976 182 179 178
0.223067 0.436232 3.92544 166 83 84
0.220795 0.464533 4.01336 212 169 177
0.216453 0.464819 3.97251 217 159 141
0.240515 0.458112 3.96625 214 120 162
0.247937 0.45042 3.95944 78 57 26
0.223702 0.478673 3.98634 159 24 18
0.220114 0.496868 4.04048 182 11 24
0.245443 0.446911 3.92713 161 122 110
0.234454 0.469139 3.96989 118 114 110
0.264073 0.43552 3.83404 170 141 48
0.32161 0.411602 3.80298 86 42 4
0.253052 0.397564 3.95515 165 177 186
0.222943 0.458892 4.00413 219 215 218
0.22805 0.455048 3.99658 229 224 226
0.218137 0.464532 3.97929 226 206 182
0.225238 0.459836 3.93536 173 152 100
0.236045 0.467067 3.98397 228 230 235
0.250632 0.433586 3.89128 132 100 38
0.229949 0.482318 4.00475 120 124 121
0.312928 0.417002 3.83339 209 158 8
0.232344 0.379234 3.8628 140 20 18
0.232683 0.4238 3.95692 139 125 106
0.275163 0.381718 3.86317 104 103 80
0.231279 0.446467 3.97349 160 98 110
0.224319 0.466174 4.01167 203 158 175
0.227875 0.449496 3.93256 204 78 34
0.221466 0.468889 3.95926 190 150 106
0.231649 0.451848 3.91049 143 23 22
0.237815 0.382566 3.92051 222 224 210
0.231651 0.427231 3.91932 162 112 116
0.213619 0.466565 3.99482 204 204 178
0.222637 0.485188 4.03274 228 205 210
0.314146 0.424435 3.85589 216 202 154
0.29212 0.453254 3.83338 85 47 0
0.299136 0.441723 3.81779 162 122 43
0.287342 0.450211 3.92558 158 92 22
0.319637 0.41809 3.82319 188 152 0
0.222671 0.457602 3.99662 154 70 89
0.223244 0.468182 3.95464 194 114 89
0.219637 0.482727 3.98611 138 33 28
0.227383 0.379492 3.9086 198 58 36
0.309543 0.422181 3.86473 175 147 38
0.312058 0.419831 3.84757 208 163 32
0.250622 0.367987 3.89363 186 60 94
0.321416 0.424401 3.82871 212 188 63
0.268461 0.43868 3.89754 104 78 26
0.219554 0.442422 3.94403 190 142 142
0.226842 0.449061 3.97566 213 182 188
0.21931 0.453611 3.93285 169 71 58
0.278397 0.453881 3.87163 180 171 114
0.311685 0.413997 3.84064 160 148 107
0.213714 0.318788 3.82597 123 22 29
0.237478 0.352834 3.8892 123 50 69
0.241201 0.432049 3.93888 218 174 170
0.229363 0.465434 4.02277 236 178 192
0.280572 0.390265 3.86973 192 166 0
0.242513 0.460033 3.99051 136 48 59
0.304369 0.411115 3.87243 211 170 46
0.304496 0.394818 3.82397 239 206 58
0.288105 0.456284 3.94047 210 162 53
0.282646 0.441011 3.87024 108 72 6
0.322889 0.419885 3.8261 228 194 50
0.235838 0.37435 3.84276 138 42 34
0.247952 0.412142 4.01263 108 122 132
0.224544 0.442402 3.96378 154 98 101
0.210928 0.469376 4.00933 202 158 145
0.230431 0.465419 4.01827 252 224 238
0.242622 0.440382 3.92362 209 96 146
0.225742 0.474138 3.9653 126 64 44
0.273198 0.422672 3.91737 190 160 32
0.277504 0.446408 3.94177 98 60 10
0.322694 0.422428 3.83366 240 208 60
0.235775 0.374112 3.84252 142 40 35
0.223926 0.444605 3.96541 237 202 194
0.274111 0.38543 3.87834 124 122 106
0.219693 0.466227 4.02899 153 86 94
0.223102 0.446836 3.91255 143 45 42
0.275929 0.410023 3.89915 240 250 237
0.259769 0.415184 3.85624 85 65 25
0.227728 0.468434 3.95031 145 89 64
0.229116 0.484122 4.00853 110 103 84
0.257188 0.445237 3.87407 182 181 137
0.322604 0.422647 3.83337 220 189 42
0.247362 0.386131 3.91796 216 221 216
0.247543 0.412258 4.01243 194 201 207
0.231053 0.438816 3.94736 188 136 141
0.22625 0.465344 3.94199 134 34 24
0.271001 0.426052 3.92738 198 168 66
0.257189 0.443038 3.87202 132 144 110
0.309439 0.421775 3.86966 240 206 80
0.313954 0.424675 3.853 203 154 15
0.314952 0.42228 3.84673 202 187 148
0.247685 0.386269 3.91675 158 162 158
0.230712 0.458263 3.9328 172 34 32
0.243594 0.444452 3.92081 193 156 172
0.312168 0.420136 3.84827 203 160 28
0.226367 0.433729 3.9216 207 194 170
0.273926 0.385967 3.87974 196 198 184
0.222102 0.462361 4.00644 228 207 214
0.219902 0.494754 4.04471 150 65 82
0.268319 0.429992 3.9342 186 181 142
0.298706 0.415602 3.861 245 141 98
0.264469 0.442863 3.85267 94 65 25
0.221586 0.447904 3.98233 194 166 164
0.217263 0.452612 3.98008 191 187 162
0.220015 0.450168 3.97958 201 201 182
0.20718 0.480992 4.05084 181 26 41
0.227019 0.467587 4.02908 228 238 241
0.223969 0.457163 3.95535 208 76 44
0.214359 0.508325 4.09465 224 200 209
0.23738 0.462241 3.97271 197 126 152
0.227318 0.479911 4.00453 186 176 186
0.290494 0.419364 3.76229 86 46 2
0.228713 0.383563 3.8819 142 44 38
0.218538 0.444774 3.94619 180 126 120
0.273599 0.391089 3.89899 142 133 78
0.23276 0.425143 3.86977 196 176 150
0.223618 0.448274 3.92215 159 22 20
0.279504 0.429489 3.89084 60 27 24
0.299151 0.407306 3.86871 227 114 0
0.27885 0.441635 3.87029 102 67 12
0.292873 0.425604 3.77665 93 52 2
0.246137 0.413585 3.88007 190 119 114
0.249932 0.365692 3.88748 199 114 136
0.233984 0.460124 3.9832 233 150 196
0.256997 0.410834 3.84139 247 214 214
0.210025 0.319632 3.83566 131 38 46
0.22336 0.43877 3.91067 153 102 92
0.221543 0.442757 3.9155 186 141 136
0.243008 0.417587 3.89224 190 124 122
0.210277 0.31883 3.83541 160 80 80
0.231128 0.38336 3.89069 132 62 32
0.260692 0.386819 3.77789 234 195 204
0.255509 0.388891 3.91631 206 220 226
0.239524 0.433693 3.86903 188 143 106
0.243018 0.428608 3.92735 218 149 150
0.232596 0.434932 3.94987 206 151 138
0.239771 0.432264 3.93942 222 164 164
0.22783 0.469615 4.00948 227 122 160
0.299916 0.396563 3.83727 127 90 26
0.23704 0.429745 3.933 219 170 158
0.244781 0.368189 3.87482 214 98 142
0.212423 0.482563 3.97914 124 26 24
0.208439 0.484272 3.99916 162 107 77
0.211172 0.480346 3.97777 150 36 40
