ply
format ascii 1.0
element vertex 741
property float x
property float y
property float z
property uchar red
property uchar green
property uchar blue
end_header
-0.152188 0.0407136 1.11608 0 255 0
-0.152189 0.0407132 1.11608 0 255 0
-0.152191 0.0407131 1.11608 0 255 0
-0.152193 0.0407133 1.11608 0 255 0
-0.152192 0.0407134 1.11608 0 255 0
-0.152188 0.0407133 1.11608 0 255 0
-0.152185 0.0407132 1.11608 0 255 0
-0.152195 0.0407092 1.11607 0 255 0
0.0763167 0.234813 1.00342 0 255 0
-0.152202 0.0407131 1.11607 0 255 0
2.25976 -1.77096 8.81895 0 255 0
-0.314955 0.490796 -0.778702 0 255 0
-0.152188 0.0407095 1.11608 0 255 0
-0.152191 0.0407057 1.11614 172 49 48
-0.15219 0.0407128 1.11614 212 84 84
-0.152191 0.0407153 1.11614 214 74 44
-0.152191 0.0407154 1.11614 220 56 62
-0.152193 0.0407156 1.11614 182 74 64
-0.152189 0.040716 1.11614 192 136 142
-0.15219 0.0407158 1.11614 160 93 94
-0.152193 0.0407162 1.11614 128 20 5
-0.152192 0.0407162 1.11614 62 32 0
-0.152193 0.0407163 1.11614 138 100 50
-0.15219 0.0407165 1.11614 70 69 67
-0.152188 0.0407184 1.11614 114 127 140
-0.152191 0.0407191 1.11614 154 123 98
-0.152193 0.0407201 1.11613 225 180 186
-0.152194 0.0407205 1.11613 239 155 154
-0.152192 0.0407209 1.11613 229 176 189
-0.152196 0.0407212 1.11613 190 106 70
-0.152196 0.0407214 1.11613 158 88 62
-0.152189 0.0407234 1.11614 158 148 66
-0.152196 0.0407219 1.11613 166 114 78
-0.152194 0.0407216 1.11613 164 91 102
-0.152193 0.0407219 1.11613 146 52 84
-0.152193 0.040722 1.11613 252 227 242
-0.152196 0.0407224 1.11613 104 48 27
-0.152189 0.040724 1.11614 184 157 33
-0.152194 0.040722 1.11613 240 102 97
-0.152194 0.040722 1.11613 142 55 61
-0.152193 0.0407224 1.11613 129 108 53
-0.15219 0.040726 1.11614 112 56 10
-0.15219 0.0407268 1.11614 120 100 121
-0.152194 0.0407262 1.11614 176 206 199
-0.15219 0.0407271 1.11614 94 68 76
-0.15219 0.0407269 1.11614 101 47 62
-0.15219 0.0407281 1.11614 139 105 3
-0.152187 0.0407303 1.11614 80 54 2
-0.152187 0.0407318 1.11615 236 222 180
-0.152187 0.0407347 1.11615 74 27 0
-0.152196 0.0407351 1.11615 158 108 26
-0.152189 0.0407343 1.11614 147 113 47
-0.152193 0.0407341 1.11614 71 36 3
-0.152191 0.0407341 1.11614 108 68 2
-0.152194 0.0407198 1.11614 166 140 138
-0.152194 0.0407199 1.11613 204 177 152
-0.152194 0.0407199 1.11613 220 154 140
-0.152194 0.0407199 1.11613 149 77 61
-0.152194 0.04072 1.11613 180 114 103
-0.152195 0.0407203 1.11613 142 92 72
-0.152196 0.0407207 1.11613 176 123 116
-0.152188 0.0407231 1.11615 194 170 4
-0.152196 0.0407215 1.11613 136 45 26
-0.152189 0.0407234 1.11614 246 252 246
-0.152192 0.0407221 1.11613 213 203 198
-0.152194 0.0407218 1.11613 185 34 30
-0.152189 0.0407241 1.11614 184 154 44
-0.152193 0.0407223 1.11613 234 210 197
-0.152192 0.0407237 1.11614 94 72 20
-0.152195 0.0407237 1.11614 184 164 153
-0.152192 0.0407267 1.11614 86 52 50
-0.152188 0.0407344 1.11614 196 170 42
-0.152189 0.0407343 1.11614 178 144 57
-0.152189 0.0407339 1.11614 210 179 70
-0.152191 0.0407124 1.11614 209 126 57
-0.152193 0.0407156 1.11614 160 55 45
-0.152193 0.0407163 1.11614 132 92 44
-0.152193 0.0407186 1.11614 170 168 152
-0.152188 0.0407184 1.11614 164 173 184
-0.152194 0.0407197 1.11613 156 127 125
-0.152194 0.0407209 1.11614 162 76 70
-0.152193 0.0407208 1.11613 197 122 142
-0.152193 0.040722 1.11613 227 242 244
-0.152193 0.0407221 1.11613 164 59 75
-0.152189 0.0407239 1.11614 186 157 45
-0.152192 0.0407234 1.11614 98 76 26
-0.152194 0.0407223 1.11613 182 120 125
-0.152193 0.0407229 1.11613 128 108 52
-0.152193 0.0407299 1.11614 158 110 0
-0.15219 0.0407159 1.11614 140 18 35
-0.152192 0.0407159 1.11614 110 11 3
-0.152194 0.0407188 1.11615 166 162 140
-0.152189 0.0407193 1.11614 178 188 188
-0.152189 0.0407236 1.11614 226 236 238
-0.152196 0.0407221 1.11613 194 148 142
-0.152196 0.0407221 1.11613 141 52 45
-0.152193 0.0407225 1.11613 128 108 52
-0.152187 0.0407325 1.11614 208 194 152
-0.152195 0.0407344 1.11615 104 60 2
-0.152191 0.0407062 1.11614 179 47 32
-0.152194 0.0407207 1.11613 238 203 172
-0.152192 0.0407219 1.11613 223 211 218
-0.152193 0.0407217 1.11613 196 22 66
-0.152194 0.0407219 1.11613 153 12 11
-0.152195 0.040723 1.11614 180 159 153
-0.152187 0.040727 1.11615 176 136 67
-0.152187 0.0407269 1.11614 214 192 87
-0.152187 0.0407306 1.11614 210 193 72
-0.152187 0.0407348 1.11615 127 84 30
-0.152189 0.0407195 1.11614 158 169 173
-0.152193 0.04072 1.11613 173 76 70
-0.152194 0.0407212 1.11614 214 180 184
-0.152196 0.0407207 1.11613 177 124 118
-0.152195 0.040722 1.11613 200 58 63
-0.152187 0.0407268 1.11614 212 186 55
-0.152195 0.0407203 1.11613 158 114 94
-0.152194 0.0407216 1.11613 134 48 64
-0.152195 0.0407233 1.11614 168 136 128
-0.152193 0.0407257 1.11614 172 135 3
-0.152193 0.0407184 1.11614 167 158 122
-0.152193 0.0407189 1.11614 164 155 125
-0.152197 0.0407222 1.11614 148 67 54
-0.152195 0.0407215 1.11613 175 151 94
-0.152192 0.0407161 1.11614 56 22 2
-0.152193 0.0407162 1.11614 130 73 36
-0.15219 0.0407193 1.11614 195 186 178
-0.152191 0.0407193 1.11614 138 96 97
-0.152194 0.04072 1.11613 211 158 145
-0.152196 0.0407207 1.11613 211 142 124
-0.152196 0.0407214 1.11613 190 150 110
-0.152193 0.0407217 1.11613 208 141 168
-0.152195 0.040722 1.11613 194 140 104
-0.152195 0.0407221 1.11613 118 39 22
-0.152192 0.0407254 1.11614 100 68 20
-0.152192 0.0407265 1.11614 97 61 50
-0.152195 0.0407337 1.11614 75 30 0
-0.152188 0.0407339 1.11614 91 48 0
-0.152193 0.0407163 1.11614 140 25 14
-0.152193 0.0407224 1.11613 241 244 246
-0.152194 0.0407219 1.11613 155 10 14
-0.15219 0.0407269 1.11614 103 80 106
-0.15219 0.0407271 1.11614 94 68 83
-0.152193 0.0407275 1.11614 150 35 0
-0.152193 0.0407155 1.11614 146 40 31
-0.152195 0.0407198 1.11613 167 114 112
-0.152187 0.0407301 1.11614 220 188 80
-0.152194 0.0407204 1.11613 245 213 205
-0.152194 0.0407205 1.11613 244 203 192
-0.152193 0.0407215 1.11613 222 134 178
-0.152194 0.0407221 1.11613 176 101 111
-0.152194 0.0407185 1.11614 176 172 154
-0.152194 0.0407205 1.11613 230 214 206
-0.15219 0.0407279 1.11614 72 26 8
-0.152187 0.0407318 1.11615 226 210 132
-0.152185 0.0407285 1.11615 159 140 116
-0.152191 0.0407191 1.11614 193 164 146
-0.152192 0.0407277 1.11614 154 119 22
-0.152191 0.0407049 1.11615 179 102 113
-0.152193 0.0407155 1.11614 188 76 66
-0.152187 0.0407296 1.11614 140 94 10
-0.152193 0.0407164 1.11614 138 60 54
-0.152193 0.0407224 1.11613 186 150 155
-0.152185 0.040729 1.11615 156 138 110
-0.152194 0.0407198 1.11613 202 196 169
-0.15219 0.0407259 1.11614 78 39 26
-0.152185 0.0407295 1.11615 150 123 86
-0.152187 0.0407267 1.11614 163 116 9
-0.15219 0.0407153 1.11614 224 68 58
-0.152191 0.040719 1.11614 136 118 95
-0.152196 0.0407239 1.11614 185 164 158
-0.152191 0.0407059 1.11614 167 50 44
-0.152195 0.04072 1.11613 220 160 138
-0.15219 0.0407273 1.11614 171 102 46
-0.152188 0.0407338 1.11614 142 104 17
-0.152193 0.0407226 1.11613 238 248 250
-0.152185 0.040729 1.11615 170 145 80
-0.152191 0.0407054 1.11614 226 198 202
-0.152194 0.0407185 1.11615 167 160 130
-0.152194 0.0407204 1.11613 232 213 204
-0.152195 0.040722 1.11613 179 32 35
-0.152187 0.0407284 1.11614 199 96 2
-0.152194 0.0407293 1.11614 174 212 200
-0.152191 0.0407059 1.11614 199 58 50
-0.152191 0.0407084 1.11614 164 44 34
-0.152193 0.0407173 1.11614 209 200 145
-0.152194 0.0407188 1.11615 167 165 144
-0.152195 0.0407208 1.11614 164 118 102
-0.152193 0.0407214 1.11613 230 150 196
-0.152189 0.0407232 1.11614 202 173 50
-0.152193 0.0407234 1.11614 96 52 0
-0.152193 0.0407239 1.11614 75 44 6
-0.152193 0.0407232 1.11614 144 66 76
-0.152194 0.0407221 1.11613 184 112 118
-0.152193 0.0407219 1.11613 211 188 188
-0.152187 0.0407261 1.11614 118 72 2
-0.15219 0.0407264 1.11614 148 98 73
-0.152193 0.0407276 1.11614 82 24 4
-0.152196 0.0407284 1.11614 120 83 3
-0.152194 0.0407296 1.11614 154 134 12
-0.15219 0.0407344 1.11614 186 156 102
-0.152191 0.0407063 1.11614 206 70 62
-0.152191 0.0407124 1.11614 214 128 66
-0.152192 0.0407156 1.11614 169 48 36
-0.152192 0.0407159 1.11614 118 42 18
-0.152192 0.040716 1.11614 60 24 2
-0.152193 0.0407164 1.11614 144 108 58
-0.152193 0.0407182 1.11614 172 170 151
-0.152188 0.0407184 1.11614 150 160 169
-0.152194 0.0407203 1.11614 206 179 174
-0.152192 0.0407208 1.11614 211 131 130
-0.152196 0.0407214 1.11613 192 153 112
-0.152193 0.0407216 1.11613 184 58 79
-0.152195 0.0407213 1.11613 185 109 72
-0.152196 0.0407216 1.11613 131 54 38
-0.152194 0.0407239 1.11614 136 120 71
-0.152195 0.0407274 1.11614 106 72 6
-0.152187 0.0407306 1.11614 96 84 28
-0.15219 0.0407128 1.11614 192 67 64
-0.152191 0.0407191 1.11614 118 81 48
-0.152194 0.0407197 1.11613 158 94 95
-0.152189 0.040723 1.11614 249 254 252
-0.152196 0.0407224 1.11613 121 65 56
-0.152187 0.0407315 1.11614 211 196 127
-0.152187 0.0407325 1.11614 146 110 1
-0.152191 0.0407053 1.11614 161 78 84
-0.152188 0.0407183 1.11614 176 184 192
-0.152194 0.0407201 1.11614 186 184 188
-0.152195 0.04072 1.11614 168 98 104
-0.152194 0.0407199 1.11613 198 186 158
-0.152193 0.0407211 1.11614 212 147 146
-0.152194 0.0407208 1.11613 208 87 32
-0.152189 0.0407245 1.11615 194 188 148
-0.152193 0.0407216 1.11613 216 180 194
-0.152195 0.0407217 1.11613 188 139 99
-0.152193 0.0407221 1.11613 236 250 250
-0.152195 0.0407227 1.11613 159 45 40
-0.152187 0.0407275 1.11615 222 197 84
-0.152195 0.0407258 1.11614 157 158 106
-0.152194 0.0407297 1.11614 186 162 90
-0.152187 0.040732 1.11615 210 158 7
-0.152191 0.0407053 1.11614 208 146 148
-0.152188 0.0407176 1.11613 159 168 179
-0.152189 0.0407211 1.11615 164 176 180
-0.152195 0.0407201 1.11614 172 86 92
-0.152195 0.0407207 1.11613 212 178 149
-0.152193 0.0407225 1.11613 132 116 57
-0.152195 0.0407261 1.11614 198 204 161
-0.15219 0.0407346 1.11614 211 172 28
-0.152188 0.0407161 1.11614 188 56 86
-0.152193 0.0407199 1.11614 183 186 190
-0.152195 0.0407198 1.11613 172 105 111
-0.152193 0.0407214 1.11613 236 243 246
-0.152193 0.0407232 1.11614 78 45 10
-0.152195 0.040722 1.11613 146 27 16
-0.152192 0.0407234 1.11614 110 90 40
-0.152194 0.0407198 1.11613 208 208 186
-0.152195 0.0407214 1.11613 199 151 108
-0.152193 0.0407217 1.11613 201 160 168
-0.152195 0.0407234 1.11614 186 7 18
-0.152193 0.0407228 1.11613 130 114 56
-0.152191 0.0407144 1.11614 188 79 29
-0.152193 0.0407201 1.11613 184 68 64
-0.152196 0.0407213 1.11614 200 171 162
-0.152194 0.0407233 1.11614 170 163 131
-0.152187 0.0407293 1.11614 240 214 107
-0.152191 0.0407124 1.11614 226 134 70
-0.152192 0.0407208 1.11614 209 147 146
-0.152195 0.0407218 1.11613 118 18 2
-0.152191 0.0407107 1.11614 196 56 56
-0.152193 0.0407222 1.11613 218 214 206
-0.152194 0.0407222 1.11613 206 182 180
-0.152194 0.040722 1.11613 134 59 54
-0.15219 0.0407256 1.11614 82 50 7
-0.152191 0.0407053 1.11614 180 106 102
-0.152189 0.0407238 1.11614 198 168 40
-0.152187 0.040727 1.11615 150 108 42
-0.152187 0.0407318 1.11615 212 191 102
-0.152187 0.0407325 1.11615 194 169 108
-0.152189 0.0407175 1.11614 158 164 155
-0.152196 0.0407212 1.11613 182 87 54
-0.152195 0.0407214 1.11613 181 150 103
-0.152187 0.040732 1.11614 196 143 4
-0.152194 0.0407221 1.11613 188 77 84
-0.152185 0.0407356 1.11615 128 84 13
-0.152191 0.0407145 1.11614 196 88 42
-0.152189 0.0407174 1.11614 192 198 188
-0.152192 0.040721 1.11613 172 72 80
-0.152187 0.0407307 1.11615 142 108 24
-0.152192 0.040733 1.11614 138 96 20
-0.152195 0.0407337 1.11614 80 38 2
-0.152195 0.0407203 1.11613 125 64 58
-0.15219 0.0407346 1.11614 189 150 42
-0.152193 0.0407222 1.11613 232 222 208
-0.15219 0.0407164 1.11614 106 104 100
-0.152194 0.0407221 1.11613 170 22 36
-0.152193 0.0407201 1.11614 183 66 69
-0.152193 0.0407216 1.11613 222 139 184
-0.152187 0.0407299 1.11614 204 173 44
-0.152195 0.0407199 1.11613 200 155 156
-0.152193 0.0407225 1.11613 146 140 93
-0.152192 0.0407214 1.11613 200 42 80
-0.152191 0.040708 1.11614 162 50 34
-0.15219 0.0407153 1.11614 218 66 54
-0.152189 0.0407161 1.11614 167 100 110
-0.152192 0.0407161 1.11614 50 16 0
-0.152193 0.0407166 1.11614 205 200 145
-0.152189 0.0407176 1.11614 140 144 134
-0.152191 0.0407176 1.11614 98 86 67
-0.15219 0.0407178 1.11614 184 186 176
-0.152191 0.0407192 1.11614 109 68 45
-0.152194 0.04072 1.11613 188 140 122
-0.152195 0.040721 1.11613 158 45 12
-0.152196 0.0407221 1.11613 96 41 15
-0.152194 0.0407219 1.11613 202 138 146
-0.152194 0.040722 1.11613 167 80 76
-0.152196 0.0407266 1.11615 116 87 18
-0.152187 0.0407307 1.11614 215 206 129
-0.152191 0.0407106 1.11614 197 61 63
-0.152189 0.0407161 1.11614 172 102 115
-0.152189 0.0407162 1.11614 145 76 88
-0.152191 0.0407162 1.11614 188 166 124
-0.15219 0.0407163 1.11614 71 68 68
-0.152193 0.0407223 1.11613 168 56 72
-0.152192 0.0407254 1.11614 151 124 52
-0.152185 0.0407287 1.11615 156 130 90
-0.152187 0.0407308 1.11615 215 206 129
-0.152187 0.0407316 1.11615 203 156 10
-0.152187 0.0407344 1.11614 101 57 2
-0.152192 0.0407337 1.11614 78 32 0
-0.152192 0.0407162 1.11614 58 24 1
-0.152193 0.0407166 1.11614 192 186 132
-0.152193 0.0407182 1.11614 156 156 148
-0.152188 0.0407229 1.11614 195 172 15
-0.152192 0.0407209 1.11613 234 206 215
-0.152192 0.0407209 1.11613 245 228 235
-0.152195 0.0407208 1.11613 207 134 111
-0.152192 0.0407221 1.11613 227 200 200
-0.152193 0.0407221 1.11613 242 244 247
-0.152185 0.0407288 1.11615 144 120 92
-0.152192 0.0407267 1.11614 82 45 50
-0.152186 0.0407354 1.11615 102 59 5
-0.152188 0.0407342 1.11614 104 68 2
-0.152193 0.0407185 1.11614 162 160 141
-0.152196 0.0407206 1.11613 177 126 124
-0.152195 0.0407206 1.11613 208 188 150
-0.15219 0.0407237 1.11614 200 167 50
-0.152193 0.0407222 1.11613 219 226 222
-0.152187 0.0407271 1.11615 102 60 14
-0.152187 0.0407299 1.11614 200 162 52
-0.152188 0.0407163 1.11615 164 58 90
-0.152193 0.0407165 1.11614 149 116 75
-0.152191 0.0407175 1.11614 210 185 168
-0.152194 0.0407197 1.11613 170 82 85
-0.152194 0.0407199 1.11613 235 193 178
-0.152195 0.0407199 1.11613 204 170 142
-0.152195 0.0407217 1.11613 187 152 106
-0.15219 0.0407262 1.11614 84 42 27
-0.152185 0.0407295 1.11615 155 130 93
-0.152187 0.0407323 1.11614 132 96 0
-0.152191 0.0407053 1.11614 222 195 197
-0.152193 0.0407165 1.11615 149 116 75
-0.152195 0.0407212 1.11613 185 152 107
-0.152195 0.0407215 1.11613 193 152 105
-0.15219 0.0407235 1.11614 176 144 4
-0.152194 0.0407197 1.11613 164 90 92
-0.152194 0.0407199 1.11613 204 195 176
-0.152192 0.0407218 1.11613 192 25 40
-0.15219 0.0407238 1.11614 203 172 58
-0.152195 0.040722 1.11613 140 8 10
-0.152193 0.0407228 1.11613 130 103 42
-0.152187 0.0407266 1.11614 152 108 36
-0.152187 0.0407286 1.11614 227 194 45
-0.152187 0.0407304 1.11614 73 48 2
-0.152196 0.0407208 1.11613 154 103 97
-0.15219 0.0407232 1.11614 202 179 88
-0.152187 0.0407273 1.11615 205 160 38
-0.152195 0.0407275 1.11614 117 66 1
-0.152191 0.040707 1.11614 180 70 52
-0.152192 0.0407162 1.11614 90 74 58
-0.152193 0.0407224 1.11613 215 193 167
-0.15219 0.0407159 1.11614 158 63 74
-0.152188 0.0407163 1.11614 133 84 112
-0.152195 0.04072 1.11613 216 166 142
-0.152193 0.0407202 1.11613 184 142 144
-0.152196 0.0407218 1.11613 138 69 36
-0.152195 0.0407256 1.11614 176 185 143
-0.152191 0.040707 1.11614 177 46 42
-0.152192 0.0407233 1.11614 98 76 30
-0.15219 0.0407158 1.11614 164 72 82
-0.152194 0.04072 1.11613 184 140 120
-0.152195 0.0407346 1.11615 85 49 4
-0.15219 0.0407194 1.11614 138 138 128
-0.152192 0.0407254 1.11614 104 74 26
-0.152187 0.0407296 1.11614 166 115 22
-0.152193 0.0407272 1.11614 157 54 4
-0.152187 0.0407302 1.11614 76 46 1
-0.152191 0.0407067 1.11614 164 79 64
-0.15219 0.0407258 1.11614 216 179 43
-0.152194 0.0407196 1.11613 158 95 99
-0.152194 0.04072 1.11613 198 148 136
-0.15219 0.040726 1.11614 94 48 24
-0.152192 0.0407213 1.11613 192 148 152
-0.152195 0.0407213 1.11613 184 140 98
-0.15219 0.0407269 1.11614 201 192 180
-0.15219 0.0407278 1.11614 78 32 12
-0.152193 0.0407165 1.11614 184 177 125
-0.152195 0.0407199 1.11613 168 124 123
-0.152187 0.0407272 1.11615 98 60 2
-0.152192 0.0407276 1.11614 92 48 21
-0.152191 0.0407145 1.11614 196 92 38
-0.152193 0.0407222 1.11613 226 238 239
-0.152193 0.0407336 1.11614 183 139 16
-0.152192 0.0407223 1.11613 192 9 36
-0.152193 0.0407219 1.11613 211 219 222
-0.152189 0.0407156 1.11614 222 83 120
-0.152193 0.0407181 1.11614 158 159 145
-0.152194 0.0407203 1.11614 148 106 101
-0.152192 0.0407206 1.11613 201 130 126
-0.152195 0.0407205 1.11613 170 117 91
-0.152192 0.040721 1.11613 205 128 154
-0.152189 0.0407232 1.11614 172 185 186
-0.152193 0.0407213 1.11613 220 186 192
-0.152195 0.0407219 1.11613 130 10 3
-0.152193 0.0407226 1.11613 172 113 48
-0.152188 0.0407228 1.11614 193 168 10
-0.152195 0.0407213 1.11613 190 123 84
-0.152187 0.0407271 1.11615 116 74 4
-0.152191 0.0407054 1.11614 136 65 72
-0.152188 0.0407185 1.11614 156 165 176
-0.152194 0.0407206 1.11614 162 108 104
-0.152195 0.0407219 1.11613 156 42 40
-0.152196 0.040725 1.11615 180 158 152
-0.152187 0.0407297 1.11614 142 92 8
-0.152194 0.0407184 1.11614 178 178 173
-0.152193 0.04072 1.11614 162 116 111
-0.152196 0.0407286 1.11614 130 82 0
-0.152191 0.0407068 1.11614 133 36 24
-0.152192 0.040716 1.11614 63 38 6
-0.15219 0.040724 1.11614 181 150 18
-0.152192 0.0407236 1.11614 101 79 35
-0.152195 0.0407221 1.11613 132 33 18
-0.152187 0.0407341 1.11614 112 66 14
-0.152193 0.0407181 1.11614 166 157 122
-0.152194 0.0407199 1.11613 222 207 190
-0.152193 0.0407218 1.11613 196 38 80
-0.152188 0.0407159 1.11614 190 50 80
-0.152195 0.0407198 1.11613 188 136 139
-0.15219 0.0407252 1.11614 222 192 43
-0.152196 0.0407226 1.11614 167 67 52
-0.152187 0.040729 1.11614 224 162 41
-0.152191 0.0407069 1.11614 150 54 43
-0.152193 0.0407165 1.11614 130 71 54
-0.152189 0.0407234 1.11614 232 240 232
-0.152195 0.0407198 1.11613 170 89 88
-0.152195 0.0407234 1.11614 184 172 162
-0.152191 0.0407052 1.11614 160 83 76
-0.152191 0.0407053 1.11614 170 120 128
-0.152192 0.0407162 1.11614 116 100 69
-0.152189 0.0407345 1.11614 159 122 42
-0.152191 0.0407154 1.11614 201 32 49
-0.152187 0.0407309 1.11614 128 112 59
-0.152193 0.0407275 1.11614 168 53 6
-0.152193 0.0407205 1.11613 198 170 174
-0.152194 0.0407205 1.11613 212 210 188
-0.152191 0.0407061 1.11614 212 70 68
-0.152191 0.0407068 1.11614 190 92 81
-0.152191 0.040707 1.11614 120 26 10
-0.152191 0.0407071 1.11614 184 66 46
-0.152191 0.0407177 1.11614 202 190 180
-0.152193 0.0407212 1.11613 186 32 30
-0.152189 0.0407235 1.11614 135 120 32
-0.152196 0.0407218 1.11613 162 96 66
-0.152192 0.0407235 1.11614 98 76 30
-0.152193 0.0407223 1.11613 221 190 156
-0.152191 0.0407238 1.11614 108 93 60
-0.152192 0.0407258 1.11614 72 32 8
-0.152194 0.0407254 1.11614 126 178 189
-0.152195 0.0407255 1.11614 134 123 52
-0.15219 0.0407274 1.11614 229 146 26
-0.152194 0.0407264 1.11614 124 125 88
-0.152192 0.0407334 1.11614 190 138 50
-0.152191 0.0407069 1.11614 156 44 36
-0.152188 0.0407187 1.11614 214 228 236
-0.15219 0.0407193 1.11614 141 143 139
-0.152194 0.04072 1.11614 154 116 116
-0.152196 0.0407206 1.11613 148 76 66
-0.152193 0.0407212 1.11613 226 116 154
-0.152194 0.040721 1.11613 195 63 32
-0.152193 0.0407215 1.11613 194 150 172
-0.15219 0.0407236 1.11614 184 164 46
-0.152196 0.0407223 1.11613 100 38 32
-0.152196 0.0407261 1.11614 110 66 20
-0.152194 0.0407254 1.11614 128 177 182
-0.15219 0.0407271 1.11614 129 108 130
-0.152196 0.0407278 1.11614 132 84 0
-0.152186 0.0407316 1.11615 216 194 152
-0.152187 0.0407341 1.11614 118 74 6
-0.152189 0.0407161 1.11614 208 178 174
-0.152194 0.04072 1.11613 205 158 145
-0.152194 0.0407199 1.11613 243 181 180
-0.152188 0.0407229 1.11614 203 180 22
-0.152192 0.040722 1.11613 204 173 174
-0.15219 0.0407237 1.11614 195 162 30
-0.152193 0.0407221 1.11613 157 38 37
-0.152187 0.0407268 1.11614 128 90 39
-0.152187 0.0407309 1.11614 168 160 116
-0.152187 0.0407313 1.11614 190 146 23
-0.152187 0.040734 1.11614 118 74 6
-0.152191 0.0407136 1.11614 216 135 62
-0.152193 0.0407155 1.11614 156 40 29
-0.152194 0.0407198 1.11613 174 100 102
-0.152193 0.0407199 1.11613 221 204 190
-0.152195 0.0407202 1.11613 148 95 73
-0.152189 0.0407243 1.11614 200 172 51
-0.152194 0.0407221 1.11613 168 48 60
-0.152195 0.0407273 1.11614 130 86 24
-0.152187 0.0407311 1.11614 201 154 17
-0.152189 0.0407162 1.11614 143 138 138
-0.152191 0.0407176 1.11614 118 100 58
-0.152192 0.0407211 1.11613 192 55 82
-0.152193 0.040721 1.11613 188 34 45
-0.152193 0.0407211 1.11613 226 122 162
-0.152196 0.0407219 1.11613 136 32 28
-0.152192 0.0407233 1.11614 108 86 47
-0.152194 0.0407252 1.11614 136 152 124
-0.152187 0.0407287 1.11614 200 109 16
-0.152196 0.0407276 1.11614 126 75 0
-0.152187 0.0407307 1.11614 146 135 90
-0.152187 0.0407341 1.11614 118 74 6
-0.152189 0.0407196 1.11614 168 180 183
-0.152193 0.040721 1.11613 180 32 42
-0.152196 0.0407219 1.11613 139 32 28
-0.152195 0.0407222 1.11613 154 26 16
-0.152195 0.0407259 1.11614 170 172 118
-0.152187 0.0407295 1.11615 202 112 16
-0.152196 0.0407275 1.11614 126 76 0
-0.152191 0.0407153 1.11614 179 44 10
-0.152195 0.04072 1.11613 192 178 141
-0.152186 0.0407324 1.11615 219 204 174
-0.152192 0.0407217 1.11613 203 170 170
-0.152193 0.040722 1.11613 198 12 48
-0.152193 0.040727 1.11614 163 92 1
-0.152191 0.0407137 1.11614 232 142 68
-0.152192 0.0407206 1.11613 224 160 149
-0.152192 0.0407221 1.11613 226 210 196
-0.152192 0.0407234 1.11614 162 116 74
-0.152194 0.0407223 1.11613 134 63 74
-0.15219 0.0407268 1.11614 59 22 39
-0.152187 0.04073 1.11614 92 63 12
-0.152186 0.0407316 1.11615 216 193 150
-0.152194 0.0407297 1.11614 198 160 26
-0.152193 0.0407301 1.11614 153 103 0
-0.152191 0.0407116 1.11614 195 101 44
-0.152195 0.0407204 1.11613 172 102 79
-0.152192 0.0407214 1.11613 215 166 171
-0.152192 0.040722 1.11613 164 104 72
-0.152196 0.0407223 1.11613 162 117 117
-0.152195 0.0407219 1.11613 118 32 18
-0.152196 0.0407261 1.11614 74 36 0
-0.152187 0.0407294 1.11614 130 82 6
-0.152191 0.0407178 1.11614 132 133 128
-0.152193 0.0407216 1.11613 242 221 238
-0.152196 0.040722 1.11613 107 30 28
-0.152195 0.0407221 1.11613 180 52 55
-0.152187 0.0407297 1.11614 193 157 35
-0.152194 0.0407337 1.11614 68 28 0
-0.152189 0.0407161 1.11614 203 178 176
-0.152188 0.0407186 1.11614 147 154 167
-0.152188 0.0407188 1.11614 217 230 238
-0.152195 0.0407217 1.11613 182 86 66
-0.152186 0.0407314 1.11615 217 196 138
-0.152191 0.0407114 1.11614 200 124 54
-0.152188 0.0407162 1.11614 163 60 88
-0.152188 0.0407186 1.11614 148 156 169
-0.152193 0.0407226 1.11613 180 50 66
-0.152196 0.0407219 1.11613 162 100 99
-0.152187 0.0407304 1.11614 92 65 17
-0.152191 0.0407151 1.11613 198 42 32
-0.152193 0.0407187 1.11614 165 156 126
-0.152193 0.040723 1.11613 146 114 52
-0.152191 0.0407145 1.11614 188 80 34
-0.152193 0.04072 1.11613 177 91 72
-0.152193 0.0407201 1.11613 221 220 217
-0.152196 0.0407213 1.11613 188 174 178
-0.152193 0.0407217 1.11613 231 199 208
-0.152192 0.0407232 1.11614 135 112 58
-0.152196 0.0407259 1.11614 118 74 16
-0.152187 0.0407304 1.11614 126 102 28
-0.152187 0.0407315 1.11614 209 194 123
-0.152192 0.0407271 1.11614 104 42 20
-0.152187 0.0407304 1.11614 93 68 16
-0.152189 0.0407176 1.11614 214 218 207
-0.152195 0.0407218 1.11613 176 143 98
-0.152195 0.0407204 1.11613 202 174 145
-0.152191 0.0407056 1.11614 131 40 58
-0.152191 0.0407051 1.11614 206 154 156
-0.152192 0.0407239 1.11614 135 118 91
-0.152191 0.0407235 1.11614 138 124 92
-0.15219 0.0407278 1.11614 182 126 10
-0.152193 0.0407162 1.11614 90 58 14
-0.152187 0.0407307 1.11614 140 126 80
-0.152187 0.0407265 1.11614 246 176 50
-0.152187 0.0407371 1.11615 96 53 2
-0.152193 0.0407215 1.11613 175 116 130
-0.152191 0.0407056 1.11614 148 78 92
-0.152191 0.0407058 1.11614 130 39 60
-0.152191 0.0407116 1.11614 206 119 60
-0.15219 0.0407128 1.11614 228 98 120
-0.152189 0.0407181 1.11614 198 197 176
-0.152194 0.040721 1.11613 170 46 32
-0.152192 0.0407222 1.11614 118 90 76
-0.152192 0.040722 1.11614 120 102 88
-0.152193 0.0407217 1.11613 163 68 100
-0.152194 0.0407222 1.11613 156 112 93
-0.152191 0.040724 1.11614 251 216 36
-0.152195 0.0407265 1.11614 170 157 102
-0.152187 0.0407299 1.11614 122 80 8
-0.152191 0.0407341 1.11614 196 153 47
-0.152191 0.0407063 1.11614 199 59 62
-0.152194 0.04072 1.11613 194 126 120
-0.152188 0.0407228 1.11614 200 176 16
-0.152196 0.0407206 1.11613 164 135 126
-0.152196 0.0407214 1.11613 130 39 18
-0.15219 0.0407235 1.11614 193 162 42
-0.15219 0.0407243 1.11614 206 182 38
-0.152194 0.040722 1.11613 226 191 194
-0.152194 0.040722 1.11613 171 15 23
-0.152191 0.0407241 1.11614 242 206 28
-0.152196 0.040726 1.11614 64 22 0
-0.152193 0.0407276 1.11614 165 47 0
-0.152187 0.0407297 1.11614 132 105 38
-0.152195 0.0407345 1.11615 75 38 2
-0.152191 0.0407063 1.11614 192 54 55
-0.152189 0.0407161 1.11614 136 114 118
-0.152194 0.040721 1.11613 195 67 27
-0.152195 0.0407264 1.11614 129 108 36
-0.152189 0.0407284 1.11614 193 125 12
-0.152196 0.0407275 1.11614 134 85 2
-0.152188 0.0407162 1.11614 170 56 84
-0.152189 0.0407162 1.11614 139 128 132
-0.152191 0.0407163 1.11614 64 52 34
-0.152193 0.0407206 1.11614 194 142 147
-0.152193 0.0407208 1.11613 243 209 222
-0.152196 0.0407247 1.11614 192 185 174
-0.152187 0.0407313 1.11615 217 199 148
-0.152187 0.0407344 1.11615 132 86 20
-0.152191 0.0407057 1.11614 226 199 207
-0.152189 0.0407176 1.11614 217 223 212
-0.152195 0.0407217 1.11613 193 150 116
-0.152195 0.0407219 1.11613 141 30 14
-0.152191 0.040707 1.11614 163 75 64
-0.152191 0.0407146 1.11614 198 96 36
-0.152189 0.0407231 1.11614 156 150 114
-0.152196 0.0407216 1.11613 196 171 172
-0.152193 0.0407224 1.11613 184 46 60
-0.152193 0.0407223 1.11613 199 190 196
-0.152196 0.0407263 1.11614 64 17 0
-0.152187 0.0407299 1.11614 191 152 38
-0.152187 0.0407324 1.11614 130 98 11
-0.152189 0.0407191 1.11614 204 214 207
-0.152194 0.0407201 1.11614 162 152 118
-0.152196 0.040722 1.11613 145 26 24
-0.152185 0.0407293 1.11615 160 144 130
-0.152194 0.04072 1.11614 166 158 130
-0.152196 0.0407225 1.11614 144 30 30
-0.152196 0.0407283 1.11614 127 75 0
-0.152191 0.0407146 1.11614 202 94 36
-0.152194 0.0407197 1.11613 187 106 101
-0.152192 0.0407236 1.11614 136 120 90
-0.152187 0.0407287 1.11614 208 146 11
-0.152194 0.0407341 1.11614 185 136 0
-0.152185 0.0407289 1.11615 174 148 91
-0.152195 0.0407205 1.11613 194 145 124
-0.152191 0.040706 1.11614 202 60 62
-0.152193 0.0407162 1.11614 150 112 70
-0.152188 0.0407187 1.11614 153 160 174
-0.152196 0.0407203 1.11613 135 108 101
-0.152194 0.0407206 1.11612 146 110 102
-0.152196 0.0407274 1.11614 114 65 1
-0.152196 0.0407332 1.11614 168 121 45
-0.152189 0.0407242 1.11614 218 190 58
-0.152196 0.0407212 1.11613 149 56 48
-0.15219 0.0407276 1.11614 232 151 38
-0.152194 0.04072 1.11613 146 84 68
-0.152193 0.040722 1.11613 244 204 216
-0.152196 0.0407218 1.11613 182 134 92
-0.152191 0.0407135 1.11614 218 150 78
-0.152192 0.0407162 1.11614 74 59 42
-0.152196 0.040726 1.11614 70 19 0
-0.152187 0.040729 1.11614 122 56 0
-0.152187 0.0407301 1.11614 169 134 38
-0.15219 0.0407256 1.11614 170 146 60
-0.152194 0.0407208 1.11613 220 198 172
-0.15219 0.0407155 1.11614 221 114 150
-0.15219 0.0407159 1.11614 174 100 106
-0.152192 0.0407192 1.11614 116 103 86
-0.152193 0.0407215 1.11613 236 212 224
-0.152196 0.0407221 1.11613 104 42 24
-0.152194 0.040734 1.11614 104 56 2
-0.152191 0.0407134 1.11615 208 113 73
-0.152191 0.0407163 1.11614 202 180 125
-0.152189 0.0407131 1.11614 130 57 76
-0.152193 0.0407223 1.11613 222 88 120
-0.152193 0.0407255 1.11614 163 126 0
-0.152193 0.0407295 1.11614 160 121 0
-0.152191 0.0407135 1.11614 220 146 78
-0.152192 0.0407334 1.11614 94 44 6
-0.152192 0.0407193 1.11614 116 104 88
-0.152192 0.0407163 1.11614 79 74 67
-0.152196 0.0407275 1.11614 110 59 0
-0.152194 0.0407198 1.11613 138 68 60
-0.152187 0.0407319 1.11614 128 84 18
-0.152192 0.0407223 1.11613 170 99 63
-0.152185 0.0407296 1.11615 152 130 96
-0.152187 0.0407343 1.11615 241 206 38
-0.15219 0.0407128 1.11614 208 82 75
-0.152195 0.0407214 1.11613 199 149 108
-0.152187 0.0407295 1.11614 188 155 50
-0.152192 0.0407284 1.11614 60 19 1
-0.152194 0.0407225 1.11613 184 76 82
-0.152193 0.0407294 1.11614 142 109 26
-0.152188 0.0407282 1.11614 240 142 90
-0.152193 0.0407214 1.11613 224 145 192
-0.152194 0.0407343 1.11614 92 54 1
-0.152193 0.0407213 1.11613 212 164 172
-0.152192 0.0407274 1.11614 136 50 20
-0.152191 0.0407243 1.11614 170 129 0
-0.152192 0.0407266 1.11614 194 104 12
-0.152187 0.0407306 1.11614 116 102 60
-0.152186 0.0407351 1.11615 92 44 0
-0.152192 0.0407228 1.11614 171 46 41
-0.152187 0.040731 1.11614 216 170 22
-0.152193 0.0407179 1.11614 169 162 137
-0.152192 0.0407226 1.11614 175 41 40
-0.152187 0.0407326 1.11615 208 187 107
-0.152194 0.0407194 1.11613 204 180 169
-0.152189 0.040723 1.11614 253 255 244
-0.152189 0.0407236 1.11614 194 165 30
-0.152192 0.0407216 1.11613 216 197 208
-0.152194 0.0407212 1.11614 178 174 170
-0.152195 0.0407213 1.11613 183 148 113
